<svg width="14" height="16" viewBox="0 0 14 16" fill="none" xmlns="http://www.w3.org/2000/svg">
<path d="M5.17104 3.08552C5.17104 4.11409 4.48532 4.9998 3.57104 5.28552V6.28552C3.57104 6.94266 4.05675 7.42838 4.71389 7.42838H9.28532C9.91389 7.42838 10.4282 6.94266 10.4282 6.28552V5.28552C9.48532 4.9998 8.82818 4.11409 8.82818 3.08552C8.82818 1.82838 9.82818 0.799805 11.1139 0.799805C12.371 0.799805 13.3996 1.82838 13.3996 3.08552C13.3996 4.11409 12.7139 4.9998 11.7996 5.28552V6.28552C11.7996 7.68552 10.6568 8.79981 9.28532 8.79981H7.68532V10.9712C8.59961 11.2569 9.28532 12.1427 9.28532 13.1427C9.28532 14.4284 8.25675 15.4284 6.99961 15.4284C5.71389 15.4284 4.71389 14.4284 4.71389 13.1427C4.71389 12.1427 5.37104 11.2569 6.31389 10.9712V8.79981H4.71389C3.31389 8.79981 2.19961 7.68552 2.19961 6.28552V5.28552C1.25675 4.9998 0.599609 4.11409 0.599609 3.08552C0.599609 1.82838 1.59961 0.799805 2.88532 0.799805C4.14247 0.799805 5.17104 1.82838 5.17104 3.08552ZM2.88532 3.9998C3.37104 3.9998 3.79961 3.5998 3.79961 3.08552C3.79961 2.5998 3.37104 2.17123 2.88532 2.17123C2.37104 2.17123 1.97104 2.5998 1.97104 3.08552C1.97104 3.5998 2.37104 3.9998 2.88532 3.9998ZM11.1139 3.9998C11.5996 3.9998 12.0282 3.5998 12.0282 3.08552C12.0282 2.5998 11.5996 2.17123 11.1139 2.17123C10.5996 2.17123 10.1996 2.5998 10.1996 3.08552C10.1996 3.5998 10.5996 3.9998 11.1139 3.9998ZM6.99961 12.2284C6.48532 12.2284 6.08532 12.6569 6.08532 13.1427C6.08532 13.6569 6.48532 14.0569 6.99961 14.0569C7.48532 14.0569 7.9139 13.6569 7.9139 13.1427C7.9139 12.6569 7.48532 12.2284 6.99961 12.2284Z" fill="#595959"/>
</svg>
