<svg width="12" height="16" viewBox="0 0 12 16" fill="none" xmlns="http://www.w3.org/2000/svg">
<path d="M0.00158816 7.99831C0.00158816 6.02727 0.00158816 4.05597 0.00158816 2.08443C0.00158816 1.6333 0.112942 1.21077 0.386365 0.843533C0.750549 0.35465 1.23485 0.0713109 1.84577 0.0198295C2.02576 0.00457571 2.2069 0.00228797 2.38766 0.00228797C4.11781 0.00228797 5.84797 0.00228806 7.57851 0C8.19476 0 8.71377 0.208976 9.14812 0.648285C9.87547 1.38555 10.6071 2.11748 11.3431 2.84406C11.6738 3.17316 11.9052 3.55298 11.9724 4.02089C11.9895 4.14344 11.9979 4.26705 11.9975 4.39079C11.9975 7.57463 12.0048 10.7592 11.9945 13.9423C11.9918 14.8103 11.575 15.4475 10.7879 15.8231C10.527 15.9423 10.2426 16.0016 9.95581 15.9966C7.31729 15.9989 4.67915 16.0065 2.04102 15.9932C1.17727 15.9886 0.543861 15.5687 0.172432 14.7817C0.0458256 14.5124 0.000444963 14.2188 6.36194e-05 13.921C-0.00019061 11.9469 0.000317011 9.97265 0.00158816 7.99831ZM7.00726 1.49601H2.09707C1.70276 1.49601 1.4976 1.70041 1.4976 2.09358C1.4976 6.03032 1.4976 9.96668 1.4976 13.9027C1.49664 13.9567 1.49931 14.0107 1.50561 14.0643C1.5365 14.2931 1.67721 14.443 1.90564 14.488C2.06161 14.5193 2.06161 14.5174 2.09631 14.3595C2.29804 13.4325 2.82887 12.7579 3.67012 12.3266C4.11057 12.1004 4.58534 12.0078 5.07461 12.0024C5.67141 11.9963 6.26859 11.9997 6.86692 12.0024C7.40424 12.0024 7.91981 12.1035 8.39726 12.3605C8.97309 12.6709 9.42231 13.1079 9.68734 13.7108C9.78878 13.9396 9.84407 14.1913 9.92378 14.4308C9.93293 14.4587 9.96572 14.4972 9.98937 14.4987C10.0998 14.5075 10.2098 14.4764 10.2993 14.4111C10.3888 14.3457 10.4519 14.2504 10.4771 14.1425C10.4977 14.0552 10.4771 13.9583 10.4771 13.8657C10.4771 10.9545 10.4771 8.04356 10.4771 5.13289V4.9937H10.3433C9.53061 4.9937 8.71758 4.9937 7.90494 4.9876C7.44046 4.9834 7.02022 4.56469 7.01565 4.10097C7.00802 3.27879 7.01107 2.45662 7.00993 1.63444C7.00688 1.59364 7.00726 1.55321 7.00726 1.49601Z" fill="#595959"/>
<path d="M5.99808 10.9912C4.89943 10.9676 4.0109 10.1202 4.0109 8.9987C4.00759 8.7351 4.0567 8.47347 4.15536 8.22901C4.25403 7.98455 4.40028 7.76213 4.58563 7.57467C4.77098 7.38721 4.99174 7.23846 5.23507 7.13704C5.4784 7.03562 5.73945 6.98356 6.00307 6.98389C6.26669 6.98422 6.52762 7.03692 6.7707 7.13895C7.01377 7.24097 7.23415 7.39028 7.41904 7.5782C7.60392 7.76612 7.74962 7.9889 7.84768 8.23361C7.94573 8.47831 7.99418 8.74006 7.99022 9.00365C7.9845 10.1416 7.08186 10.9725 5.99808 10.9912Z" fill="#595959"/>
</svg>
