<svg width="16" height="14" viewBox="0 0 16 14" fill="none" xmlns="http://www.w3.org/2000/svg">
<path d="M15.2649 9.95924C15.34 9.6089 15.34 9.23353 15.2649 8.88319L15.9155 8.50782C15.9906 8.4828 16.0156 8.3827 15.9906 8.30762C15.8154 7.75709 15.5402 7.28162 15.1648 6.85621C15.1148 6.80616 15.0147 6.78113 14.9396 6.83118L14.289 7.20655C14.0137 6.98133 13.7134 6.78113 13.363 6.68104V5.9303C13.363 5.8302 13.313 5.75513 13.2129 5.75513C12.6624 5.63001 12.0868 5.63001 11.5613 5.75513C11.4862 5.75513 11.4362 5.8302 11.4362 5.9303V6.68104C11.0858 6.78113 10.7855 6.98133 10.5103 7.20655L9.85963 6.83118C9.78456 6.78113 9.68446 6.80616 9.63441 6.85621C9.25904 7.28162 8.95875 7.75709 8.8086 8.30762C8.78358 8.3827 8.8086 8.4828 8.88368 8.50782L9.53431 8.88319C9.45924 9.23353 9.45924 9.6089 9.53431 9.95924L8.88368 10.3346C8.8086 10.3596 8.78358 10.4597 8.8086 10.5348C8.95875 11.0853 9.25904 11.5608 9.63441 11.9862C9.68446 12.0363 9.78456 12.0613 9.85963 12.0112L10.5103 11.6359C10.7855 11.8611 11.0858 12.0613 11.4362 12.1614V12.9121C11.4362 13.0122 11.4862 13.0873 11.5613 13.0873C12.1369 13.2124 12.6874 13.2124 13.2379 13.0873C13.313 13.0873 13.363 13.0122 13.363 12.9121V12.1614C13.7134 12.0613 14.0137 11.8611 14.289 11.6359L14.9396 12.0112C15.0147 12.0613 15.1148 12.0363 15.1648 11.9862C15.5402 11.5608 15.8154 11.0853 15.9906 10.5348C16.0156 10.4597 15.9906 10.3596 15.9155 10.3346L15.2649 9.95924ZM12.4121 10.6349C11.7365 10.6349 11.1859 10.0844 11.1859 9.4087C11.1859 8.75806 11.7365 8.20753 12.4121 8.20753C13.0628 8.20753 13.6133 8.75806 13.6133 9.4087C13.6133 10.0844 13.0628 10.6349 12.4121 10.6349ZM10.6354 12.9121C10.6354 13.0623 10.6604 13.2124 10.7355 13.3375C10.6354 13.3876 10.5103 13.4126 10.4102 13.4126H0.800782C0.350342 13.4126 0 13.0623 0 12.6118C0 10.1845 1.95191 8.20753 4.4043 8.20753H6.78162C7.18201 8.20753 7.5824 8.2826 7.9828 8.3827C7.9828 8.73304 8.15797 9.03333 8.45826 9.2085L8.65846 9.33363C8.65846 9.38368 8.65846 9.45875 8.65846 9.5088L8.45826 9.63392C8.38319 9.68397 8.30811 9.73402 8.25806 9.80909C7.83265 9.55885 7.33216 9.4087 6.80665 9.4087H4.4043C2.75269 9.4087 1.40137 10.6349 1.2262 12.2114H8.8086C8.88368 12.3115 8.95875 12.4367 9.03382 12.5117C9.23402 12.7119 9.50929 12.837 9.75953 12.837C9.9347 12.837 10.1099 12.787 10.26 12.7119L10.4602 12.5868C10.5103 12.6369 10.5603 12.6619 10.6354 12.6869V12.9121ZM5.60547 7.00635C7.35718 7.00635 8.8086 5.57996 8.8086 3.80323C8.8086 2.05151 7.35718 0.600098 5.60547 0.600098C3.82874 0.600098 2.40235 2.05151 2.40235 3.80323C2.40235 5.57996 3.82874 7.00635 5.60547 7.00635ZM5.60547 1.80127C6.70655 1.80127 7.60743 2.70215 7.60743 3.80323C7.60743 4.92933 6.70655 5.80518 5.58045 5.80518C4.47937 5.80518 3.60352 4.92933 3.60352 3.80323C3.60352 2.70215 4.47937 1.80127 5.60547 1.80127Z" fill="#595959"/>
</svg>
