<svg width="20" height="20" viewBox="0 0 20 20" fill="none" xmlns="http://www.w3.org/2000/svg">
<path d="M6.42395 0.000869085C6.35203 0.00432154 6.28087 0.0190902 6.21335 0.0444086C2.2691 1.50617 0 5.3371 0 9.70176C0 15.3794 4.61194 19.9989 10.2898 19.9989C14.6547 19.9989 18.4927 17.7303 19.9545 13.7856C20.0531 13.5261 19.9885 13.2326 19.7896 13.0387C19.5908 12.8446 19.296 12.787 19.0388 12.8918C18.0323 13.2965 16.9284 13.5094 15.7615 13.5094C10.9426 13.5094 6.48909 9.04855 6.48909 4.2296C6.48909 3.06284 6.6947 1.95883 7.09942 0.952243L7.09962 0.952435C7.18554 0.733205 7.15524 0.485584 7.01906 0.293783C6.88269 0.101784 6.65885 -0.00849774 6.4237 0.00051245L6.42395 0.000869085ZM5.34852 2.01385C5.19278 2.73309 5.09419 3.4679 5.09419 4.23016C5.09419 9.88964 10.1026 14.9049 15.7616 14.9049C16.5238 14.9049 17.2588 14.799 17.9779 14.6433C16.449 17.1684 13.6233 18.6036 10.2895 18.6036C5.36558 18.6036 1.3952 14.6256 1.3952 9.70197C1.3952 6.3682 2.82318 3.54263 5.34829 2.0136L5.34852 2.01385Z" fill="black"/>
</svg>
