<svg width="24" height="17" viewBox="0 0 24 17" fill="none" xmlns="http://www.w3.org/2000/svg">
<path d="M15.4 7.7C15.4 9.49432 14.4611 11.2 13.4151 12.5251C12.9021 13.1749 12.3872 13.703 12.0008 14.0679C12.0005 14.0682 12.0002 14.0685 12 14.0687C11.9997 14.0685 11.9994 14.0682 11.9992 14.0679C11.6128 13.703 11.0979 13.1749 10.5849 12.5251C9.53882 11.2 8.59998 9.49432 8.59998 7.7C8.59998 5.90568 9.53882 4.19999 10.5849 2.8749C11.0979 2.22509 11.6128 1.69704 11.9992 1.33207C11.9994 1.33181 11.9997 1.33155 12 1.33129C12.0002 1.33155 12.0005 1.33181 12.0008 1.33207C12.3872 1.69704 12.9021 2.22509 13.4151 2.8749C14.4611 4.19999 15.4 5.90568 15.4 7.7Z" stroke="black" stroke-width="2"/>
<path d="M8.15 7.69922H1.73333C1.32832 7.69922 1 8.02754 1 8.43255V8.43255C1 12.2801 4.11908 15.3992 7.96666 15.3992H16.0333C19.8809 15.3992 23 12.2801 23 8.43255V8.43255C23 8.02754 22.6717 7.69922 22.2667 7.69922H15.85" stroke="black" stroke-width="2"/>
</svg>
