<svg width="14" height="14" viewBox="0 0 14 14" fill="none" xmlns="http://www.w3.org/2000/svg">
<path d="M12.469 8C13.2759 8 13.9586 8.68276 13.9586 9.48966V12.469C13.9586 13.3069 13.2759 13.9586 12.469 13.9586H9.48966C8.65172 13.9586 8 13.3069 8 12.469V9.48966C8 8.68276 8.65172 8 9.48966 8H12.469ZM12.469 9.48966H9.48966V12.469H12.469V9.48966Z" fill="#595959"/>
<path d="M4.46897 8C5.27586 8 5.95862 8.68276 5.95862 9.48966V12.469C5.95862 13.3069 5.27586 13.9586 4.46897 13.9586H1.48966C0.651724 13.9586 0 13.3069 0 12.469V9.48966C0 8.68276 0.651724 8 1.48966 8H4.46897ZM4.46897 9.48966H1.48966V12.469H4.46897V9.48966Z" fill="#595959"/>
<path d="M12.469 0C13.2759 0 13.9586 0.682759 13.9586 1.48966V4.46897C13.9586 5.3069 13.2759 5.95862 12.469 5.95862H9.48966C8.65172 5.95862 8 5.3069 8 4.46897V1.48966C8 0.682759 8.65172 0 9.48966 0H12.469ZM12.469 1.48966H9.48966V4.46897H12.469V1.48966Z" fill="#595959"/>
<path d="M4.46897 0C5.27586 0 5.95862 0.682759 5.95862 1.48966V4.46897C5.95862 5.3069 5.27586 5.95862 4.46897 5.95862H1.48966C0.651724 5.95862 0 5.3069 0 4.46897V1.48966C0 0.682759 0.651724 0 1.48966 0H4.46897ZM4.46897 1.48966H1.48966V4.46897H4.46897V1.48966Z" fill="#595959"/>
</svg>
