<svg width="16" height="14" viewBox="0 0 16 14" fill="none" xmlns="http://www.w3.org/2000/svg">
<path d="M5.6 7.0001C7.35 7.0001 8.8 5.5751 8.8 3.8001C8.8 2.0501 7.35 0.600098 5.6 0.600098C3.825 0.600098 2.4 2.0501 2.4 3.8001C2.4 5.5751 3.825 7.0001 5.6 7.0001ZM5.6 1.8001C6.7 1.8001 7.6 2.7001 7.6 3.8001C7.6 4.9251 6.7 5.8001 5.6 5.8001C4.475 5.8001 3.6 4.9251 3.6 3.8001C3.6 2.7001 4.475 1.8001 5.6 1.8001ZM6.85 8.2001H4.325C1.925 8.2001 0 10.1501 0 12.5501C0 13.0251 0.375 13.4001 0.85 13.4001H10.325C10.8 13.4001 11.2 13.0251 11.2 12.5501C11.2 10.1501 9.25 8.2001 6.85 8.2001ZM1.2 12.2001C1.375 10.6501 2.7 9.4001 4.325 9.4001H6.85C8.475 9.4001 9.775 10.6501 9.975 12.2001H1.2ZM11.975 8.6001H10.125C11.275 9.5501 12 10.9751 12 12.5501C12 12.8751 11.9 13.1501 11.75 13.4001H15.2C15.625 13.4001 16 13.0501 16 12.6001C16 10.4001 14.2 8.6001 11.975 8.6001ZM10.8 7.0001C12.325 7.0001 13.6 5.7501 13.6 4.2001C13.6 2.6751 12.325 1.4001 10.8 1.4001C10.15 1.4001 9.575 1.6251 9.125 1.9751C9.4 2.5251 9.6 3.1501 9.6 3.8001C9.6 4.7001 9.3 5.5251 8.8 6.1751C9.3 6.7001 10 7.0001 10.8 7.0001Z" fill="#595959"/>
</svg>
