<svg width="14" height="16" viewBox="0 0 14 16" fill="none" xmlns="http://www.w3.org/2000/svg">
<path d="M6.58835 8.23529C4.31788 8.23529 2.4707 6.38812 2.4707 4.11765C2.4707 1.84718 4.31788 0 6.58835 0C8.85882 0 10.706 1.84718 10.706 4.11765H9.05894C9.05894 2.75553 7.95047 1.64706 6.58835 1.64706C5.22623 1.64706 4.11776 2.75553 4.11776 4.11765C4.11776 5.47976 5.22623 6.58824 6.58835 6.58824V8.23529Z" fill="#595959"/>
<path d="M9.88245 8.23541H7.41187V4.94129H10.706V6.44753C11.1873 6.27647 11.6039 5.96077 11.8988 5.54369C12.1936 5.12661 12.3523 4.62855 12.353 4.11776V3.29423C12.353 2.83941 12.7217 2.4707 13.1766 2.4707C13.6314 2.4707 14.0001 2.83941 14.0001 3.29423V4.11776C14.0001 6.38823 12.1529 8.23541 9.88245 8.23541Z" fill="#595959"/>
<path d="M8.25714 9H5.34286C2.36786 9 0 11.4688 0 14.5C0 15.0625 0.425 15.5 0.971429 15.5H12.6286C13.1446 15.5 13.6 15.0625 13.6 14.5C13.6 11.4688 11.2018 9 8.25714 9ZM1.45714 14C1.7 12.0312 3.33929 10.5 5.34286 10.5H8.25714C10.2304 10.5 11.8696 12.0312 12.1125 14H1.45714Z" fill="#595959"/>
</svg>
