<svg width="16" height="15" viewBox="0 0 16 15" fill="none" xmlns="http://www.w3.org/2000/svg">
<path d="M14 0.799805H2C0.875 0.799805 0 1.70605 0 2.7998V12.7998C0 13.9248 0.875 14.7998 2 14.7998H14C15.0938 14.7998 16 13.9248 16 12.7998V2.7998C16 1.70605 15.0938 0.799805 14 0.799805ZM7.9375 2.2998H10.0312L7.53125 4.7998H5.4375L7.9375 2.2998ZM1.5 3.76855L2.9375 2.2998H5.03125L2.53125 4.7998H1.5V3.76855ZM14.5 12.7998C14.5 13.0811 14.25 13.2998 14 13.2998H2C1.71875 13.2998 1.5 13.0811 1.5 12.7998V6.2998H14.5V12.7998ZM14.5 2.8623L12.5312 4.7998H10.4375L12.9375 2.2998H14C14.25 2.2998 14.5 2.5498 14.5 2.7998V2.8623ZM6.8125 12.2998C6.875 12.2998 6.9375 12.2998 7 12.2686L10.3438 10.1123C10.4375 10.0498 10.5 9.9248 10.5 9.7998C10.5 9.64355 10.4375 9.5498 10.3125 9.4873L7 7.33105C6.90625 7.2998 6.75 7.2998 6.65625 7.3623C6.5625 7.4248 6.5 7.51855 6.5 7.64355V11.9561C6.5 12.0811 6.5625 12.2061 6.65625 12.2686C6.71875 12.2998 6.75 12.2998 6.8125 12.2998Z" fill="#595959"/>
</svg>
