<svg width="16" height="14" viewBox="0 0 16 14" fill="none" xmlns="http://www.w3.org/2000/svg">
<path d="M7.975 8.6001C9.425 8.6001 10.575 7.4501 10.575 6.0001C10.575 4.5751 9.4 3.4001 7.975 3.4001C6.55 3.4001 5.4 4.5751 5.4 6.0001C5.375 7.4501 6.55 8.6001 7.975 8.6001ZM7.975 4.6001C8.75 4.6001 9.375 5.2501 9.375 6.0001C9.375 6.7751 8.75 7.4001 7.975 7.4001C7.225 7.4001 6.575 6.7751 6.575 6.0001C6.575 5.2501 7.225 4.6001 7.975 4.6001ZM12.8 4.6001C13.9 4.6001 14.8 3.7251 14.8 2.6001C14.8 1.5001 13.9 0.600098 12.8 0.600098C11.675 0.600098 10.8 1.5001 10.8 2.6001C10.8 3.7251 11.675 4.6001 12.8 4.6001ZM9.225 9.4001H6.75C4.775 9.4001 3.2 10.9001 3.2 12.7501C3.2 13.1251 3.5 13.4001 3.9 13.4001H12.075C12.475 13.4001 12.8 13.1251 12.8 12.7501C12.8 10.9001 11.2 9.4001 9.225 9.4001ZM4.45 12.2001C4.7 11.3001 5.625 10.6001 6.725 10.6001H9.225C10.325 10.6001 11.25 11.3001 11.525 12.2001H4.45ZM13.775 5.4001H12.25C11.925 5.4001 11.625 5.5001 11.35 5.6251C11.35 5.7501 11.375 5.8751 11.375 6.0001C11.375 6.8501 11.075 7.6251 10.55 8.2001H15.55C15.8 8.2001 16 8.0001 16 7.7501C16 6.4501 15 5.4001 13.775 5.4001ZM4.575 6.0001C4.575 5.8751 4.6 5.7501 4.625 5.6251C4.35 5.4751 4.05 5.4001 3.725 5.4001H2.2C0.975 5.4001 0 6.4501 0 7.7501C0 8.0001 0.175 8.2001 0.425 8.2001H5.425C4.9 7.6251 4.575 6.8501 4.575 6.0001ZM3.2 4.6001C4.3 4.6001 5.2 3.7251 5.2 2.6001C5.2 1.5001 4.3 0.600098 3.2 0.600098C2.075 0.600098 1.2 1.5001 1.2 2.6001C1.2 3.7251 2.075 4.6001 3.2 4.6001Z" fill="#595959"/>
</svg>
