<svg width="16" height="16" viewBox="0 0 16 16" fill="none" xmlns="http://www.w3.org/2000/svg">
<path d="M12.4401 9.07429C12.4248 11.4935 10.353 13.4711 7.97751 13.4535C5.46751 13.4338 3.5258 11.303 3.55426 8.96212C3.58442 6.49957 5.67422 4.53413 8.03139 4.55684C10.5451 4.58293 12.5092 6.72627 12.4401 9.07429ZM10.6102 7.33928C10.5912 7.35589 10.5715 7.37147 10.5539 7.38876C9.98191 7.94698 9.4099 8.5051 8.8379 9.0631C8.67998 9.21661 8.52614 9.37588 8.35704 9.51617C8.17914 9.66358 7.97209 9.69679 7.75521 9.59716C7.51326 9.48601 7.36653 9.2976 7.34247 9.03193C7.32282 8.81471 7.42753 8.63647 7.5746 8.48974C8.24827 7.812 8.92374 7.13743 9.60103 6.46602C9.62373 6.44331 9.64542 6.41959 9.6688 6.39553C8.47802 5.60123 6.65931 5.72152 5.58307 7.04887C4.57527 8.2932 4.65558 10.0868 5.84535 11.2403C7.02902 12.3884 8.89855 12.4186 10.1375 11.261C11.2822 10.1926 11.3645 8.43823 10.6098 7.33928H10.6102Z" fill="#595959"/>
<path d="M3.54582 3.66713C3.54582 4.18391 3.17645 4.55463 2.66239 4.55429C2.14832 4.55395 1.7793 4.18424 1.7793 3.66679C1.7793 3.14934 2.14765 2.7793 2.66273 2.7793C3.17781 2.7793 3.54582 3.15205 3.54582 3.66713Z" fill="#595959"/>
<path d="M2.0895e-06 9.00333C2.0895e-06 8.48588 0.370046 8.11617 0.884786 8.11719C1.39953 8.11821 1.76584 8.48994 1.76584 9.00604C1.76584 9.52214 1.39309 9.89354 0.881059 9.89218C0.369029 9.89083 -0.00101451 9.52044 2.0895e-06 9.00333Z" fill="#595959"/>
<path d="M14.2336 9.00502C14.2336 8.48757 14.602 8.11753 15.1171 8.11719C15.6321 8.11685 16.0005 8.48791 16.0005 9.00468C16.0005 9.52146 15.6318 9.89218 15.1174 9.89218C14.603 9.89218 14.2336 9.52247 14.2336 9.00502Z" fill="#595959"/>
<path d="M3.54582 14.3427C3.54582 14.8595 3.17679 15.2302 2.66239 15.2306C2.14799 15.2309 1.7793 14.8605 1.7793 14.3431C1.7793 13.8256 2.14765 13.4556 2.66273 13.4556C3.17781 13.4556 3.54582 13.8263 3.54582 14.3427Z" fill="#595959"/>
<path d="M8.88331 1.88783C8.88331 2.40427 8.51395 2.77499 7.99955 2.77499C7.48514 2.77499 7.11612 2.4063 7.11646 1.88716C7.11679 1.36801 7.48514 0.999661 8.00022 1C8.5153 1.00034 8.88365 1.37106 8.88331 1.88783Z" fill="#595959"/>
<path d="M14.2211 3.66951C14.2194 4.18629 13.8483 4.55633 13.3349 4.55396C12.8215 4.55159 12.4539 4.18121 12.4539 3.66409C12.4539 3.14698 12.8266 2.77694 13.34 2.77931C13.8534 2.78168 14.2227 3.15172 14.2211 3.66951Z" fill="#595959"/>
<path d="M14.2211 14.3431C14.2211 14.8595 13.852 15.2302 13.3376 15.2306C12.8232 15.2309 12.4539 14.8605 12.4539 14.3431C12.4539 13.8256 12.8222 13.4556 13.3373 13.4556C13.8524 13.4556 14.2211 13.8263 14.2211 14.3431Z" fill="#595959"/>
</svg>
