<svg width="28" height="28" viewBox="0 0 28 28" fill="none" xmlns="http://www.w3.org/2000/svg">
<path d="M9.33272 14.0001C9.33272 15.2134 8.49282 16.178 7.4661 16.178C6.43937 16.178 5.59947 15.2136 5.59947 14.0001C5.59947 12.7868 6.43937 11.8223 7.4661 11.8223C8.49256 11.8225 9.33272 12.7869 9.33272 14.0001ZM20.5329 11.8225C19.5061 11.8225 18.6662 12.7869 18.6662 14.0004C18.6662 15.2137 19.5061 16.1783 20.5329 16.1783C21.5596 16.1783 22.3995 15.2139 22.3995 14.0004C22.3995 12.7869 21.5596 11.8225 20.5329 11.8225ZM27.9996 14.0001C27.9996 21.7158 21.7151 28 13.9996 28C13.3463 28 12.6929 27.9379 12.0706 27.8755C11.6975 27.9376 11.2931 28 10.8887 28C9.20862 28 7.74641 27.2222 6.99967 26.1334C2.83068 23.7066 0 19.1955 0 13.9999C0 6.25333 6.28453 0 14 0C21.7157 0 28 6.2532 28 13.9999L27.9996 14.0001ZM13.9996 18.2002C13.9996 17.7647 13.6573 17.4223 13.2218 17.4223C12.7863 17.4223 12.4442 17.7647 12.4442 18.2002V22.618L11.6975 22.4625C11.4175 22.4315 11.1376 22.4002 10.8887 22.4002C9.20862 22.4002 7.77749 23.3958 7.77749 24.578C7.77749 25.7602 9.20862 26.7559 10.8887 26.7559C12.5687 26.7559 13.9999 25.7602 13.9999 24.578L13.9996 18.2002ZM26.1332 14.0001C26.1332 7.31125 20.6889 1.86661 13.9996 1.86661C7.31067 1.86661 1.86597 7.31093 1.86597 14.0001C1.86597 17.9512 3.76366 21.4668 6.68828 23.6761C7.21717 22.1515 9.05273 21.0317 11.1993 21.1562V20.5339H10.577C10.2347 20.5339 9.95475 20.2539 9.95475 19.9116C9.95475 19.5692 10.2347 19.2893 10.577 19.2893H11.1993V18.2005C11.1993 17.0803 12.1016 16.1784 13.2215 16.1784C14.3416 16.1784 15.2436 17.0806 15.2436 18.2005L15.2438 19.2895H17.4217C17.764 19.2895 18.044 19.5695 18.044 19.9118C18.044 20.2542 17.764 20.5341 17.4217 20.5341H15.2438V24.5786C15.2438 25.1385 15.0883 25.6364 14.7771 26.1031C21.0927 25.6982 26.1329 20.4404 26.1329 14.0005L26.1332 14.0001Z" fill="white"/>
</svg>
