<svg width="16" height="12" viewBox="0 0 16 12" fill="none" xmlns="http://www.w3.org/2000/svg">
<path fill-rule="evenodd" clip-rule="evenodd" d="M14 10V2C14 1.63181 13.7016 1.33333 13.3334 1.33333C12.9652 1.33333 12.6667 1.63181 12.6667 2V10C12.6667 10.3682 12.9652 10.6667 13.3334 10.6667C13.7016 10.6667 14 10.3682 14 10ZM13.3334 0C12.2288 0 11.3334 0.895431 11.3334 2V10C11.3334 11.1046 12.2288 12 13.3334 12C14.4379 12 15.3334 11.1046 15.3334 10V2C15.3334 0.895431 14.4379 0 13.3334 0Z" fill="#595959"/>
<path fill-rule="evenodd" clip-rule="evenodd" d="M8.66667 10.0002V5.3335C8.66667 4.96531 8.36819 4.66683 8 4.66683C7.63181 4.66683 7.33333 4.96531 7.33333 5.3335V10.0002C7.33333 10.3684 7.63181 10.6668 8 10.6668C8.36819 10.6668 8.66667 10.3684 8.66667 10.0002ZM8 3.3335C6.89543 3.3335 6 4.22893 6 5.3335V10.0002C6 11.1047 6.89543 12.0002 8 12.0002C9.10457 12.0002 10 11.1047 10 10.0002V5.3335C10 4.22893 9.10457 3.3335 8 3.3335Z" fill="#595959"/>
<path fill-rule="evenodd" clip-rule="evenodd" d="M3.33329 10V8C3.33329 7.63181 3.03482 7.33333 2.66663 7.33333C2.29844 7.33333 1.99996 7.63181 1.99996 8V10C1.99996 10.3682 2.29844 10.6667 2.66663 10.6667C3.03482 10.6667 3.33329 10.3682 3.33329 10ZM2.66663 6C1.56206 6 0.666626 6.89543 0.666626 8V10C0.666626 11.1046 1.56206 12 2.66663 12C3.7712 12 4.66663 11.1046 4.66663 10V8C4.66663 6.89543 3.7712 6 2.66663 6Z" fill="#595959"/>
</svg>
