<svg width="16" height="16" viewBox="0 0 16 16" fill="none" xmlns="http://www.w3.org/2000/svg">
<path d="M5.26901 0.799805C6.07591 0.799805 6.75867 1.48256 6.75867 2.28946V5.26877C6.75867 6.1067 6.07591 6.75843 5.26901 6.75843H2.2897C1.45177 6.75843 0.800049 6.1067 0.800049 5.26877V2.28946C0.800049 1.48256 1.45177 0.799805 2.2897 0.799805H5.26901ZM5.26901 2.28946H2.2897V5.26877H5.26901V2.28946ZM5.26901 8.74463C6.07591 8.74463 6.75867 9.42739 6.75867 10.2343V13.2136C6.75867 14.0515 6.07591 14.7033 5.26901 14.7033H2.2897C1.45177 14.7033 0.800049 14.0515 0.800049 13.2136V10.2343C0.800049 9.42739 1.45177 8.74463 2.2897 8.74463H5.26901ZM5.26901 10.2343H2.2897V13.2136H5.26901V10.2343ZM8.74488 2.28946C8.74488 1.48256 9.3966 0.799805 10.2345 0.799805H13.2138C14.0207 0.799805 14.7035 1.48256 14.7035 2.28946V5.26877C14.7035 6.1067 14.0207 6.75843 13.2138 6.75843H10.2345C9.3966 6.75843 8.74488 6.1067 8.74488 5.26877V2.28946ZM10.2345 5.26877H13.2138V2.28946H10.2345V5.26877ZM11.7242 8.24808C12.1276 8.24808 12.469 8.58946 12.469 8.99291V10.9791H14.4552C14.8587 10.9791 15.2 11.3205 15.2 11.7239C15.2 12.1584 14.8587 12.4688 14.4552 12.4688H12.469V14.455C12.469 14.8895 12.1276 15.1998 11.7242 15.1998C11.2897 15.1998 10.9794 14.8895 10.9794 14.455V12.4688H8.99315C8.55867 12.4688 8.24832 12.1584 8.24832 11.7239C8.24832 11.3205 8.55867 10.9791 8.99315 10.9791H10.9794V8.99291C10.9794 8.58946 11.2897 8.24808 11.7242 8.24808Z" fill="#595959"/>
</svg>
