<svg width="16" height="16" viewBox="0 0 16 16" fill="none" xmlns="http://www.w3.org/2000/svg">
<path d="M8.00132 3.26272C8.27776 3.26272 8.54187 3.14829 8.73092 2.9466C9.39505 2.23807 10.331 1.7998 11.3684 1.7998C13.3439 1.7998 15 3.49477 15 5.55161C15 7.42829 14.0348 9.18588 12.6078 10.7365C11.1972 12.2694 9.42249 13.5023 8.00272 14.3195C6.59853 13.4944 4.81926 12.18 3.4005 10.6026C1.95392 8.99425 1 7.24572 1 5.55161C1 3.49477 2.65609 1.7998 4.63158 1.7998C5.66899 1.7998 6.60495 2.23807 7.26908 2.9466C7.45813 3.14829 7.72224 3.26272 7.99868 3.26272H8.00132Z" stroke="#595959" stroke-width="2" stroke-linejoin="round"/>
</svg>
