<svg width="16" height="16" viewBox="0 0 16 16" fill="none" xmlns="http://www.w3.org/2000/svg">
<path d="M9.06076 3.88552H7.38933C6.16791 3.88552 5.17148 4.88195 5.17148 6.13552C5.17148 6.55338 5.52505 6.90695 5.94291 6.90695C6.36076 6.90695 6.71433 6.55338 6.71433 6.13552C6.71433 5.7498 7.00362 5.42838 7.38933 5.42838H9.06076C9.44648 5.42838 9.80005 5.7498 9.80005 6.13552C9.80005 6.39266 9.67148 6.61766 9.44648 6.74623L7.61433 7.83909C7.35719 7.9998 7.22862 8.25695 7.22862 8.51409V9.02838C7.22862 9.44623 7.58219 9.7998 8.00005 9.7998C8.41791 9.7998 8.77148 9.44623 8.77148 9.02838V8.96409L10.2179 8.06409C10.925 7.64623 11.3429 6.90695 11.3429 6.13552C11.3429 4.88195 10.3465 3.88552 9.06076 3.88552ZM8.00005 10.5712C7.42148 10.5712 6.97148 11.0212 6.97148 11.5998C6.97148 12.1784 7.38933 12.6284 8.00005 12.6284C8.54648 12.6284 9.02862 12.1784 9.02862 11.5998C9.02862 11.0212 8.54648 10.5712 8.00005 10.5712ZM13.1429 0.799805H2.85719C1.70005 0.799805 0.800049 1.73195 0.800049 2.85695V13.1427C0.800049 14.2998 1.70005 15.1998 2.85719 15.1998H13.1429C14.2679 15.1998 15.2 14.2998 15.2 13.1427V2.85695C15.2 1.73195 14.2679 0.799805 13.1429 0.799805ZM13.6572 13.1427C13.6572 13.4319 13.4 13.6569 13.1429 13.6569H2.85719C2.56791 13.6569 2.34291 13.4319 2.34291 13.1427V2.85695C2.34291 2.5998 2.56791 2.34266 2.85719 2.34266H13.1429C13.4 2.34266 13.6572 2.5998 13.6572 2.85695V13.1427Z" fill="#595959"/>
</svg>
