<svg width="9" height="17" viewBox="0 0 9 17" fill="none" xmlns="http://www.w3.org/2000/svg">
<path d="M3.5097 2.08996V1.97552C3.5097 1.63223 3.51275 1.28894 3.51199 0.945651C3.51199 0.453219 3.91135 -0.0167083 4.52775 0.000456218C5.02552 0.0141879 5.3814 0.310181 5.48134 0.794603C5.49509 0.879181 5.50046 0.964912 5.49736 1.05055C5.49736 1.37133 5.49736 1.69212 5.49736 2.01291V2.10826C6.0554 2.20629 6.60352 2.30547 7.15164 2.39777C7.37096 2.43592 7.58571 2.4836 7.75125 2.63884C8.24483 3.1019 8.25933 3.76636 7.72265 4.20005C7.46175 4.4106 7.15393 4.45676 6.832 4.38772C6.0718 4.22485 5.30893 4.07647 4.5308 4.04443C3.91402 4.01887 3.30525 4.07151 2.74073 4.35491C2.51873 4.46629 2.30856 4.59827 2.16514 4.81264C2.00952 5.04379 2.00227 5.3085 2.00914 5.57245C2.01448 5.7708 2.13654 5.90926 2.26508 6.0462C2.47411 6.26895 2.74797 6.37995 3.01803 6.49781C3.56348 6.73583 4.14136 6.87124 4.7116 7.03182C5.33906 7.21072 5.96576 7.39876 6.57758 7.62381C7.14973 7.83322 7.68374 8.12654 8.1304 8.54803C8.77388 9.15832 9.05576 9.91432 8.99092 10.7962C8.95549 11.3721 8.77151 11.929 8.45691 12.4127C8.25894 12.7148 7.99919 12.9551 7.70968 13.1649C7.09175 13.6139 6.38801 13.8397 5.64001 13.9465C5.59615 13.9526 5.55266 13.961 5.49888 13.9697V14.0842C5.49888 14.4081 5.49799 14.7321 5.49621 15.0561C5.49621 15.566 5.07969 16.0184 4.48045 16.0009C3.9781 15.9864 3.62298 15.6885 3.52457 15.1972C3.51229 15.1157 3.50782 15.0332 3.51123 14.9508C3.51123 14.6395 3.51123 14.3283 3.51123 14.017V13.9198C2.52445 13.7428 1.57087 13.4949 0.658476 13.1161C0.299928 12.9669 0.0687783 12.6965 0.0100374 12.3074C-0.0582394 11.8497 0.228598 11.4008 0.663815 11.2436C0.913967 11.1526 1.18961 11.1618 1.43317 11.2692C2.17195 11.5662 2.93865 11.7885 3.72178 11.9325C4.17721 12.0198 4.64332 12.0221 5.10753 11.9943C5.43434 11.9806 5.75723 11.9177 6.06531 11.8078C6.37046 11.6933 6.63746 11.527 6.83505 11.2566C6.96817 11.0735 6.97122 10.8599 6.99906 10.6497C7.05399 10.2302 6.8217 9.98069 6.49633 9.78998C5.97262 9.48292 5.40124 9.28992 4.82107 9.12514C4.01319 8.89628 3.19769 8.69259 2.41498 8.38325C1.88708 8.17498 1.37557 7.93201 0.950273 7.55019C0.541375 7.18325 0.244237 6.73392 0.111116 6.19457C-0.132239 5.21505 0.0432215 4.30685 0.638641 3.49669C0.967438 3.04888 1.42401 2.74221 1.9298 2.51602C2.40037 2.30054 2.90274 2.16271 3.41739 2.10788C3.44847 2.10364 3.47929 2.09765 3.5097 2.08996Z" fill="#595959"/>
</svg>
