<svg width="16" height="12" viewBox="0 0 16 12" fill="none" xmlns="http://www.w3.org/2000/svg">
<path d="M4.32 8.3199C4.32 8.7399 3.99 9.0399 3.6 9.0399C3.18 9.0399 2.88 8.7399 2.88 8.3199V3.9999C2.88 3.6099 3.18 3.2799 3.6 3.2799C3.99 3.2799 4.32 3.6099 4.32 3.9999V8.3199ZM0 2.3199C0 1.2699 0.84 0.399902 1.92 0.399902H14.08C15.13 0.399902 16 1.2699 16 2.3199V9.9999C16 11.0799 15.13 11.9199 14.08 11.9199H1.92C0.84 11.9199 0 11.0799 0 9.9999V2.3199ZM1.44 2.3199V9.9999C1.44 10.2699 1.65 10.4799 1.92 10.4799H14.08C14.32 10.4799 14.56 10.2699 14.56 9.9999V2.3199C14.56 2.0799 14.32 1.8399 14.08 1.8399H1.92C1.65 1.8399 1.44 2.0799 1.44 2.3199Z" fill="#595959"/>
</svg>
