<svg width="23" height="29" viewBox="0 0 23 29" fill="none" xmlns="http://www.w3.org/2000/svg">
<path d="M11.5001 0.771484C9.66494 0.771484 7.9049 1.50052 6.60721 2.7982C5.30953 4.09589 4.5805 5.85592 4.5805 7.69113C4.5805 9.52633 5.30953 11.2864 6.60721 12.5841C7.9049 13.8817 9.66494 14.6108 11.5001 14.6108C13.3353 14.6108 15.0954 13.8817 16.3931 12.5841C17.6908 11.2864 18.4198 9.52633 18.4198 7.69113C18.4198 5.85592 17.6908 4.09589 16.3931 2.7982C15.0954 1.50052 13.3353 0.771484 11.5001 0.771484ZM19.8182 17.3786H3.18204C1.66387 17.3786 0.428711 18.6138 0.428711 20.132V21.1844C0.428711 23.4762 1.73306 25.458 4.10097 26.7637C6.07099 27.8515 8.69907 28.4501 11.5001 28.4501C16.8324 28.4501 22.5716 26.1763 22.5716 21.1844V20.132C22.5716 18.6138 21.3364 17.3786 19.8182 17.3786Z" fill="#66CDD7"/>
</svg>
