<svg width="16" height="20" viewBox="0 0 16 20" fill="none" xmlns="http://www.w3.org/2000/svg">
<path d="M3.13687 17.9061L3.13638 17.9058C1.67569 17.1003 1 15.9695 1 14.75V13.9895C1 13.4448 1.44478 13 1.9895 13H14.0105C14.5552 13 15 13.4448 15 13.9895V14.75C15 16.0933 14.2549 17.1182 12.9513 17.8579C11.6234 18.6115 9.80609 19 8 19C6.1041 19 4.38023 18.5926 3.13687 17.9061ZM5.17157 2.17157C5.92172 1.42143 6.93913 1 8 1C9.06087 1 10.0783 1.42143 10.8284 2.17157C11.5786 2.92172 12 3.93913 12 5C12 6.06087 11.5786 7.07828 10.8284 7.82843C10.0783 8.57857 9.06087 9 8 9C6.93913 9 5.92172 8.57857 5.17157 7.82843C4.42143 7.07828 4 6.06087 4 5C4 3.93913 4.42143 2.92172 5.17157 2.17157Z" stroke="black" stroke-width="2"/>
</svg>
