<svg width="16" height="16" viewBox="0 0 16 16" fill="none" xmlns="http://www.w3.org/2000/svg">
<path d="M14 0H2C0.875 0 0 0.875 0 1.96875V10.9375C0 12.0312 0.875 12.9062 2 12.9062H5V15.5312C5 15.8438 5.34375 16 5.59375 15.8125L9.5 12.9062H14C15.0938 12.9062 16 12 16 10.9375V1.96875C16 0.875 15.125 0 14 0ZM14.5312 10.9688C14.5312 11.25 14.2812 11.4688 14.0312 11.4688H9.03125L6.53125 13.3438V11.4688H2.03125C1.75 11.4688 1.53125 11.25 1.53125 10.9688V1.96875C1.53125 1.71875 1.75 1.46875 2.03125 1.46875H14.0312C14.2812 1.46875 14.5312 1.71875 14.5312 1.96875V10.9688ZM10.0312 5.46875C10.5625 5.46875 11.0312 5 11.0312 4.46875C11.0312 3.96875 10.5625 3.46875 10.0312 3.46875C9.53125 3.46875 9.0625 3.9375 9.0625 4.46875C9.0625 5.03125 9.46875 5.46875 10.0312 5.46875ZM6.03125 5.46875C6.5625 5.46875 7.03125 5 7.03125 4.46875C7.03125 3.96875 6.5625 3.46875 6.03125 3.46875C5.53125 3.46875 5.0625 3.9375 5.0625 4.46875C5.0625 5.03125 5.46875 5.46875 6.03125 5.46875ZM10.1875 7.5C9.65625 8.125 8.875 8.46875 8.03125 8.46875C7.15625 8.46875 6.375 8.125 5.84375 7.5C5.5625 7.1875 5.09375 7.125 4.78125 7.40625C4.46875 7.6875 4.4375 8.15625 4.6875 8.46875C5.53125 9.4375 6.71875 10 8.03125 10C9.3125 10 10.5 9.4375 11.3438 8.46875C11.5938 8.15625 11.5625 7.6875 11.25 7.40625C10.9375 7.125 10.4688 7.1875 10.1875 7.5Z" fill="#9C9B9B"/>
</svg>
