<svg width="14" height="16" viewBox="0 0 14 16" fill="none" xmlns="http://www.w3.org/2000/svg">
<path d="M12.2979 10.9717C11.8301 10.3755 11.5827 9.6723 11.5827 8.93827V6.69174C11.5827 5.57084 11.1056 4.51851 10.2396 3.72908C9.76238 3.29259 9.20108 2.96589 8.58728 2.75999C8.58769 2.74124 8.5881 2.72236 8.5881 2.7036C8.5881 1.63609 7.89062 0.799805 7.00042 0.799805C6.11022 0.799805 5.41275 1.63613 5.41275 2.7036C5.41275 2.72561 5.41316 2.74761 5.41384 2.76949C3.66868 3.37712 2.41809 4.95611 2.41809 6.79154V8.93827C2.41809 9.67245 2.1708 10.3755 1.70298 10.9717C1.40401 11.3527 1.32184 11.8277 1.47769 12.2748C1.63271 12.7195 1.9977 13.0616 2.47946 13.213C3.23912 13.4519 4.06426 13.6276 4.92482 13.736C5.07725 14.5634 5.94997 15.1998 7.00041 15.1998C8.05086 15.1998 8.92356 14.5634 9.07601 13.7359C9.93656 13.6275 10.7616 13.4518 11.5214 13.2129C12.003 13.0614 12.368 12.7195 12.523 12.2747C12.679 11.8275 12.5968 11.3528 12.2979 10.9717ZM7.00048 1.57341C7.32501 1.57341 7.68371 1.97062 7.73568 2.55738C7.47977 2.52 7.21798 2.50162 6.95222 2.50325C6.71873 2.5055 6.48932 2.52425 6.26514 2.55838C6.31681 1.97111 6.67578 1.57341 7.00048 1.57341ZM7.00048 14.4263C6.47102 14.4263 6.01715 14.1765 5.83398 13.8243C6.2188 13.8509 6.60855 13.8644 7.00048 13.8644C7.3924 13.8644 7.78215 13.8509 8.16697 13.8243C7.98379 14.1765 7.53008 14.4263 7.00048 14.4263ZM11.7173 12.0398C11.6443 12.2493 11.4727 12.4102 11.2465 12.4813C9.97841 12.8799 8.51018 13.0908 7.00072 13.0908C5.49126 13.0908 4.02289 12.88 2.75498 12.4813C2.52873 12.4102 2.35717 12.2491 2.28417 12.0398C2.21035 11.8282 2.24918 11.6031 2.39067 11.4227C2.96236 10.6942 3.26449 9.83509 3.26449 8.93827V6.79154C3.26449 4.87286 4.92286 3.29634 6.96114 3.27681C6.9744 3.27669 6.98753 3.27669 7.00078 3.27669C7.9994 3.27669 8.93597 3.63075 9.6422 4.27666C10.3481 4.9203 10.7369 5.778 10.7369 6.69171V8.93824C10.7369 9.83519 11.039 10.6941 11.6107 11.4227C11.7524 11.6031 11.7911 11.8282 11.7173 12.0398Z" fill="#595959"/>
<path d="M7.00048 14.4263C6.47102 14.4263 6.01715 14.1765 5.83398 13.8243C6.2188 13.8509 6.60855 13.8644 7.00048 13.8644C7.3924 13.8644 7.78215 13.8509 8.16697 13.8243C7.98379 14.1765 7.53008 14.4263 7.00048 14.4263Z" fill="#595959"/>
<path d="M7.00048 1.57341C7.32501 1.57341 7.68371 1.97062 7.73568 2.55738C7.47977 2.52 7.21798 2.50162 6.95222 2.50325C6.71873 2.5055 6.48932 2.52425 6.26514 2.55838C6.31681 1.97111 6.67578 1.57341 7.00048 1.57341Z" fill="#595959"/>
<path d="M12.2979 10.9717C11.8301 10.3755 11.5827 9.6723 11.5827 8.93827V6.69174C11.5827 5.57084 11.1056 4.51851 10.2396 3.72908C9.76238 3.29259 9.20108 2.96589 8.58728 2.75999C8.58769 2.74124 8.5881 2.72236 8.5881 2.7036C8.5881 1.63609 7.89062 0.799805 7.00042 0.799805C6.11022 0.799805 5.41275 1.63613 5.41275 2.7036C5.41275 2.72561 5.41316 2.74761 5.41384 2.76949C3.66868 3.37712 2.41809 4.95611 2.41809 6.79154V8.93827C2.41809 9.67245 2.1708 10.3755 1.70298 10.9717C1.40401 11.3527 1.32184 11.8277 1.47769 12.2748C1.63271 12.7195 1.9977 13.0616 2.47946 13.213C3.23912 13.4519 4.06426 13.6276 4.92482 13.736C5.07725 14.5634 5.94997 15.1998 7.00041 15.1998C8.05086 15.1998 8.92356 14.5634 9.07601 13.7359C9.93656 13.6275 10.7616 13.4518 11.5214 13.2129C12.003 13.0614 12.368 12.7195 12.523 12.2747C12.679 11.8275 12.5968 11.3528 12.2979 10.9717ZM7.00048 1.57341C7.32501 1.57341 7.68371 1.97062 7.73568 2.55738C7.47977 2.52 7.21798 2.50162 6.95222 2.50325C6.71873 2.5055 6.48932 2.52425 6.26514 2.55838C6.31681 1.97111 6.67578 1.57341 7.00048 1.57341ZM7.00048 14.4263C6.47102 14.4263 6.01715 14.1765 5.83398 13.8243C6.2188 13.8509 6.60855 13.8644 7.00048 13.8644C7.3924 13.8644 7.78215 13.8509 8.16697 13.8243C7.98379 14.1765 7.53008 14.4263 7.00048 14.4263ZM11.7173 12.0398C11.6443 12.2493 11.4727 12.4102 11.2465 12.4813C9.97841 12.8799 8.51018 13.0908 7.00072 13.0908C5.49126 13.0908 4.02289 12.88 2.75498 12.4813C2.52873 12.4102 2.35717 12.2491 2.28417 12.0398C2.21035 11.8282 2.24918 11.6031 2.39067 11.4227C2.96236 10.6942 3.26449 9.83509 3.26449 8.93827V6.79154C3.26449 4.87286 4.92286 3.29634 6.96114 3.27681C6.9744 3.27669 6.98753 3.27669 7.00078 3.27669C7.9994 3.27669 8.93597 3.63075 9.6422 4.27666C10.3481 4.9203 10.7369 5.778 10.7369 6.69171V8.93824C10.7369 9.83519 11.039 10.6941 11.6107 11.4227C11.7524 11.6031 11.7911 11.8282 11.7173 12.0398Z" stroke="#595959"/>
<path d="M7.00048 14.4263C6.47102 14.4263 6.01715 14.1765 5.83398 13.8243C6.2188 13.8509 6.60855 13.8644 7.00048 13.8644C7.3924 13.8644 7.78215 13.8509 8.16697 13.8243C7.98379 14.1765 7.53008 14.4263 7.00048 14.4263Z" stroke="#595959"/>
<path d="M7.00048 1.57341C7.32501 1.57341 7.68371 1.97062 7.73568 2.55738C7.47977 2.52 7.21798 2.50162 6.95222 2.50325C6.71873 2.5055 6.48932 2.52425 6.26514 2.55838C6.31681 1.97111 6.67578 1.57341 7.00048 1.57341Z" stroke="#595959"/>
</svg>
