<svg width="14" height="14" viewBox="0 0 14 14" fill="none" xmlns="http://www.w3.org/2000/svg">
<path d="M3 4.5C3 2.29086 4.79086 0.5 7 0.5C9.20914 0.5 11 2.29086 11 4.5V6.2843C11 6.86766 11.2138 7.4308 11.6009 7.8672L12.4428 8.81623C12.9645 9.40434 12.9863 10.2829 12.4944 10.8961C12.1882 11.2779 11.7253 11.5 11.2359 11.5H2.91855C2.34931 11.5 1.81587 11.2223 1.48944 10.7559C1.00403 10.0625 1.08651 9.1206 1.68505 8.52206L2.30646 7.90064C2.75053 7.45658 3 6.8543 3 6.2263V4.5Z" stroke="black"/>
<circle cx="6.99995" cy="12" r="1.5" stroke="black"/>
</svg>
