<svg width="19" height="24" viewBox="0 0 19 24" fill="none" xmlns="http://www.w3.org/2000/svg">
<path d="M2.25629 9.7969C2.27935 10.635 2.44105 11.5525 2.82174 12.5207L2.82178 12.5208C3.63178 14.5801 5.78018 15.215 7.39245 14.6895C8.22079 14.4194 8.97699 13.8253 9.34108 12.9031C9.70572 11.9795 9.61364 10.891 9.07949 9.74519L9.07947 9.74515C8.08816 7.61884 8.43892 5.38246 9.11386 3.5831C9.27653 3.14943 9.45541 2.74871 9.63301 2.39061C10.0921 3.5542 10.6038 4.41605 11.1866 5.12479C11.8573 5.94036 12.6236 6.53937 13.3633 7.11756C13.5702 7.2793 13.775 7.43941 13.9751 7.60218L14.01 7.63057L14.0473 7.65571C14.7091 8.10179 15.3041 8.64051 15.8141 9.25558L15.8302 9.275L15.8473 9.29357C16.947 10.4915 17.75 11.9901 17.75 14.6112C17.75 19.2454 13.9988 23 9.375 23C4.75117 23 1 19.2454 1 14.6112C1 12.714 1.43212 11.1915 2.25629 9.7969Z" stroke="black" stroke-width="2"/>
</svg>
