<svg width="22" height="24" viewBox="0 0 22 24" fill="none" xmlns="http://www.w3.org/2000/svg">
<path d="M6.96594 5.53396L6.96593 5.53398C4.6869 8.28154 2.83055 11.9194 1.81248 15.5583L1.78012 15.674L1.72128 15.7787C0.94544 17.1596 0.826041 18.1981 1.22137 18.9521L1.2214 18.9521C1.64293 19.7561 2.70949 20.4694 4.92422 20.9237C4.92469 20.9238 4.92515 20.9239 4.92561 20.924L4.96571 20.9321L5.0638 20.9519L5.15603 20.9907C10.461 23.2228 15.5058 23.9947 20.0824 21.21L20.3406 14.4731C17.8097 13.4189 15.445 12.7248 13.2729 12.7371C11.5513 12.7468 9.94852 13.2309 8.5522 14.3431L6.07857 16.3135L6.96967 13.2792C7.61815 11.071 8.45966 8.94065 9.83751 7.34784L10.3222 6.78755L10.9994 7.088C11.0432 7.10744 11.0831 7.12563 11.1218 7.14326C11.2961 7.22264 11.4452 7.29056 11.8093 7.40921L6.96594 5.53396ZM6.96594 5.53396C9.23486 2.79846 11.7748 1.08404 14.2509 1.00304M6.96594 5.53396L14.2509 1.00304M14.2509 1.00304L16.76 3.64746C16.7089 3.74395 16.6451 3.86273 16.5703 3.99846C16.3584 4.3832 16.0617 4.89796 15.72 5.42472C15.3751 5.95648 14.9983 6.48103 14.6159 6.90346L14.6157 6.90366C14.1972 7.36631 13.9197 7.58104 13.643 7.66094L13.6429 7.66097C13.1695 7.79777 12.5842 7.66172 11.8093 7.40924L14.2509 1.00304ZM16.9009 3.37561L16.9008 3.37565L16.9014 3.37457L16.9009 3.37549L16.9009 3.37558L16.9009 3.37561Z" stroke="black" stroke-width="2"/>
</svg>
