<svg width="16" height="16" viewBox="0 0 16 16" fill="none" xmlns="http://www.w3.org/2000/svg">
<path d="M13.9518 12.6558L13.9518 12.6558L12.6558 13.9518C12.5662 14.0413 12.4153 14.1043 12.2367 14.1043C12.0582 14.1043 11.9073 14.0413 11.8177 13.9518L11.8177 13.9518L10.8208 12.9548C10.5874 12.7214 10.2601 12.6502 9.97117 12.774C9.71058 12.8857 9.51864 13.147 9.51864 13.4579V14.9034C9.51864 15.2254 9.24402 15.5 8.92205 15.5H7.07782C6.75585 15.5 6.48123 15.2254 6.48123 14.9034V13.4579C6.48123 13.1522 6.29533 12.894 6.0475 12.7796C5.91682 12.7193 5.75585 12.6929 5.58858 12.734C5.4361 12.7715 5.30958 12.8573 5.21472 12.9682L4.19099 13.9433L4.19089 13.9432L4.18229 13.9518C4.09272 14.0413 3.94177 14.1043 3.76325 14.1043C3.58472 14.1043 3.43379 14.0413 3.34425 13.9518L3.34423 13.9518L2.04824 12.6558C1.96383 12.5714 1.89563 12.4116 1.89563 12.2118C1.89563 12.0737 1.95681 11.9091 2.04814 11.8178L2.04824 11.8177L3.04519 10.8208C3.27857 10.5874 3.34984 10.2601 3.226 9.97117C3.11431 9.71057 2.85296 9.51863 2.54211 9.51863H1.09659C0.77462 9.51863 0.5 9.24402 0.5 8.92205V7.07782C0.5 6.75585 0.774618 6.48123 1.09659 6.48123H2.54211C2.84785 6.48123 3.10601 6.29533 3.22041 6.0475C3.28073 5.91682 3.3071 5.75585 3.266 5.58858C3.22853 5.4361 3.14269 5.30959 3.03183 5.21473L2.05674 4.19099L2.05685 4.19089L2.04824 4.18229C1.95676 4.0908 1.89563 3.92622 1.89563 3.78819C1.89563 3.58833 1.96384 3.42863 2.04823 3.34424L2.04824 3.34423L3.34423 2.04824C3.4338 1.95868 3.58475 1.89566 3.76327 1.89566C3.9418 1.89566 4.09273 1.95868 4.18227 2.04823L4.18217 2.04833L4.19099 2.05674L5.21472 3.03183C5.30958 3.14269 5.43609 3.22853 5.58858 3.266C5.75585 3.30711 5.91681 3.28073 6.0475 3.22041C6.29533 3.10601 6.48123 2.84785 6.48123 2.54211V1.09659C6.48123 0.774618 6.75585 0.5 7.07782 0.5H8.92205C9.24402 0.5 9.51864 0.774619 9.51864 1.09659V2.54211C9.51864 2.85298 9.71059 3.11432 9.97118 3.226C10.2601 3.34983 10.5874 3.27858 10.8208 3.04519L11.8177 2.04824C11.9073 1.95868 12.0582 1.89566 12.2368 1.89566C12.4153 1.89566 12.5662 1.95868 12.6558 2.04823L12.6558 2.04824L13.9518 3.34423C14.0754 3.4679 14.1543 3.64525 14.1543 3.78819C14.1543 3.86983 14.0854 4.04873 13.9519 4.18219L13.9518 4.18208L13.9433 4.19099L12.9682 5.21472C12.8573 5.30958 12.7715 5.43609 12.734 5.58858C12.6929 5.75585 12.7193 5.91681 12.7796 6.0475C12.894 6.29533 13.1522 6.48123 13.4579 6.48123H14.9034C15.2254 6.48123 15.5 6.75585 15.5 7.07782V8.92205C15.5 9.24402 15.2254 9.51863 14.9034 9.51863H13.4579C13.147 9.51863 12.8857 9.71059 12.774 9.97117C12.6502 10.2601 12.7214 10.5874 12.9548 10.8208C12.9548 10.8208 12.9548 10.8208 12.9548 10.8208L13.9518 11.8177C14.0854 11.9514 14.1543 12.1302 14.1543 12.2118C14.1543 12.3548 14.0754 12.5321 13.9518 12.6558Z" stroke="black"/>
<path d="M8.02461 5.63379C9.288 5.63379 10.3658 6.70026 10.3658 8.02484C10.3658 9.29386 9.29366 10.366 8.02461 10.366C6.70003 10.366 5.63356 9.28826 5.63356 8.02484C5.63356 6.70592 6.70569 5.63379 8.02461 5.63379Z" stroke="black"/>
</svg>
