<svg width="34" height="25" viewBox="0 0 34 25" fill="none" xmlns="http://www.w3.org/2000/svg">
<path d="M2.57403 22.1005C3.57932 23.1583 4.77797 23.9422 6.17021 24.4515C7.1755 24.8041 8.21983 25 9.26374 25C12.3958 25 15.2575 23.4328 16.9588 20.8855C17.2295 21.3167 17.5389 21.7084 17.9255 22.1002C18.9308 23.158 20.1295 23.9418 21.5217 24.4512C22.527 24.8038 23.5713 24.9997 24.6152 24.9997C28.5979 24.9997 32.1556 22.4528 33.4703 18.6518C34.2824 16.2617 34.1663 13.6753 33.0837 11.4026C32.0009 9.12973 30.1063 7.40573 27.7474 6.54373C27.2833 6.38697 26.8193 6.23021 26.3166 6.152C27.0512 4.93735 27.9408 3.80098 29.0235 2.78218C29.4101 2.42956 29.6423 1.92017 29.6037 1.41082C29.5651 0.940544 29.3329 0.509658 28.9464 0.274423C28.6756 0.11767 28.4051 3.32558e-06 28.0571 3.29515e-06C27.8252 3.27488e-06 27.6316 0.0391134 27.3997 0.117656C24.8864 1.09732 22.4888 2.74308 20.4393 4.89825C19.55 5.83878 18.3897 7.13162 17.4232 8.69924C17.1914 9.05186 16.9978 9.44359 16.8045 9.83561C15.6831 8.30746 14.175 7.17108 12.3963 6.54407C11.9322 6.38731 11.4681 6.23055 10.9655 6.15234C11.7 4.93769 12.5896 3.80131 13.6724 2.78251C14.059 2.42989 14.2912 1.92051 14.2526 1.41115C14.214 0.940884 13.9818 0.509995 13.5952 0.274759C13.3244 0.118006 13.0539 0.000347214 12.7059 0.000347183C12.4741 0.000347163 12.2805 0.0394497 12.0486 0.117992C9.53526 1.09765 7.13764 2.74342 5.08811 4.89859C4.19884 5.83911 3.03849 7.13195 2.07206 8.69957C1.33752 9.87509 0.795926 11.0897 0.447927 12.3829C-0.596641 15.87 0.215386 19.592 2.57403 22.1005Z" fill="white"/>
</svg>
