<svg width="44" height="68" viewBox="0 0 44 68" fill="none" xmlns="http://www.w3.org/2000/svg">
<circle opacity="0.05" cx="-24" cy="34" r="36.5" stroke="black"/>
<path d="M37.4149 30.2828C38.8742 29.7928 39.0362 27.5542 37.6532 26.8721M40.2571 33.1746C42.9848 30.9552 43.0992 26.3823 40.4575 24.0479" stroke="black" stroke-width="2"/>
<path d="M28.7473 34.4615C31.8947 34.4615 34.4505 31.8866 34.4505 28.7067C34.1835 21.0978 23.3019 21.0978 23.0345 28.7067C23.0345 31.8773 25.5905 34.4615 28.7377 34.4615H28.7473Z" stroke="black" stroke-width="2"/>
<path d="M23.8353 37.4147H33.6218C36.977 37.3576 38.7412 41.5962 36.3348 43.8909C35.6157 44.5926 34.6283 45.0003 33.6218 45.0003H23.8353C21.7167 45.0003 20.0006 43.303 20.0006 41.2075C19.9624 39.1688 21.7837 37.3766 23.8353 37.4147Z" stroke="black" stroke-width="2"/>
</svg>
