<svg width="16" height="12" viewBox="0 0 16 12" fill="none" xmlns="http://www.w3.org/2000/svg">
<path d="M5.50109 4.0843C5.27489 4.00642 5.13872 3.96222 5.00347 3.94076L3.549 3.7099L4.30004 2.44313C4.47718 2.14436 4.67238 1.85283 4.88769 1.57104C4.26692 1.95748 3.67114 2.44855 3.12691 3.03209C2.72174 3.46922 2.23177 4.02983 1.83091 4.69306L1.82781 4.69819L1.8278 4.69818C1.52925 5.18551 1.31485 5.67907 1.1777 6.19889L1.17417 6.21228L1.17027 6.22557C0.769888 7.58891 1.09306 9.00307 1.94477 9.92849C2.30937 10.3193 2.73971 10.6071 3.24691 10.7975C3.62241 10.9311 3.99775 11 4.35941 11C5.48621 11 6.52269 10.4261 7.14398 9.47724L8.00654 8.15993L8.83212 9.50073C8.92067 9.64454 9.02141 9.77546 9.15425 9.91277L9.16078 9.91952L9.16719 9.9264C9.53218 10.3182 9.9631 10.6067 10.4711 10.7973C10.8466 10.9309 11.222 10.9998 11.5836 10.9998C13.0134 10.9998 14.3162 10.0659 14.8028 8.63428C15.1066 7.72008 15.059 6.74489 14.6628 5.89643L5.50109 4.0843ZM5.50109 4.0843C6.13772 4.31455 6.68304 4.73076 7.09623 5.3051L8.07726 6.66869L8.80832 5.15629C8.90408 4.95818 8.96939 4.82646 9.03965 4.71747L9.0475 4.7053L9.05499 4.6929C9.4558 4.02975 9.94571 3.46919 10.3508 3.03208C10.8951 2.44847 11.4909 1.95735 12.1118 1.57088C11.8965 1.85267 11.7013 2.1442 11.5241 2.44297L10.7731 3.70974L12.2275 3.94059C12.3616 3.96188 12.4966 4.0055 12.7194 4.08215C13.5744 4.40409 14.264 5.04272 14.6627 5.89634L5.50109 4.0843Z" stroke="#595959" stroke-width="2"/>
</svg>
