<svg width="29" height="21" viewBox="0 0 29 21" fill="none" xmlns="http://www.w3.org/2000/svg">
<path d="M2.44268 18.4416C3.28289 19.3141 4.2847 19.9605 5.44831 20.3806C6.28852 20.6715 7.16135 20.833 8.03383 20.833C10.6516 20.833 13.0433 19.5404 14.4652 17.4395C14.6915 17.7951 14.9501 18.1182 15.2732 18.4413C16.1134 19.3138 17.1152 19.9602 18.2788 20.3803C19.119 20.6712 19.9919 20.8327 20.8644 20.8327C24.193 20.8327 27.1665 18.7321 28.2653 15.5972C28.944 13.6259 28.847 11.4927 27.9422 9.61821C27.0372 7.74364 25.4537 6.32173 23.4822 5.61078C23.0943 5.48149 22.7065 5.3522 22.2864 5.28769C22.9003 4.28588 23.6438 3.34863 24.5488 2.50835C24.8719 2.21752 25.0659 1.79739 25.0337 1.37729C25.0014 0.989422 24.8073 0.634039 24.4843 0.440023C24.2579 0.310737 24.0319 0.213689 23.741 0.213689C23.5472 0.213689 23.3854 0.245946 23.1916 0.310726C21.091 1.11872 19.0871 2.4761 17.3742 4.25363C16.6309 5.02935 15.6611 6.09565 14.8534 7.38858C14.6596 7.67941 14.4978 8.0025 14.3363 8.32583C13.399 7.06545 12.1386 6.1282 10.6519 5.61105C10.2641 5.48177 9.87623 5.35248 9.45612 5.28797C10.07 4.28616 10.8135 3.34891 11.7185 2.50863C12.0416 2.2178 12.2357 1.79767 12.2034 1.37757C12.1712 0.989701 11.9771 0.634316 11.654 0.4403C11.4277 0.311015 11.2016 0.213972 10.9108 0.213972C10.717 0.213972 10.5552 0.246224 10.3614 0.311003C8.26077 1.119 6.25688 2.47638 4.54391 4.25391C3.80067 5.02963 2.83087 6.09593 2.02314 7.38886C1.40922 8.35839 0.956571 9.3602 0.665717 10.4268C-0.207315 13.3029 0.471363 16.3726 2.44268 18.4416Z" fill="#FFBA90"/>
</svg>
