<svg width="16" height="15" viewBox="0 0 16 15" fill="none" xmlns="http://www.w3.org/2000/svg">
<path d="M8.46545 0.600098C4.75167 0.600098 1.73079 3.6209 1.73079 7.33475C1.73079 7.96656 1.81899 8.59304 1.99183 9.19797L0.812687 13.6013C0.778535 13.7292 0.814469 13.8677 0.909945 13.9614C0.980181 14.0316 1.07551 14.0713 1.17277 14.0713C1.20514 14.0713 1.23751 14.0677 1.26824 14.0587L4.94431 13.0757C6.00109 13.7274 7.21437 14.0712 8.46729 14.0712C12.1793 14.0692 15.2 11.0484 15.2 7.33461C15.2 3.6208 12.1794 0.600336 8.46539 0.600336L8.46545 0.600098ZM8.46545 13.324C7.3025 13.324 6.17566 12.9909 5.20885 12.3591C5.14767 12.3195 5.07744 12.2979 5.00542 12.2979C4.97305 12.2979 4.94068 12.3015 4.90995 12.3106L1.69866 13.1709L2.7391 9.28945C2.75706 9.22278 2.75528 9.15076 2.73553 9.08424C2.5627 8.51717 2.47628 7.92859 2.47628 7.33449C2.47628 4.03114 5.16402 1.34526 8.46551 1.34526C11.7671 1.34526 14.4547 4.03107 14.4547 7.33449C14.4547 10.6379 11.767 13.3237 8.46551 13.3237L8.46545 13.324Z" fill="#595959" stroke="#595959"/>
<path fill-rule="evenodd" clip-rule="evenodd" d="M10.9365 9.31472C11.484 8.5515 11.6139 7.38444 11.3238 6.6923C11.1645 6.3128 10.7652 5.93005 10.2318 5.93005C9.65005 5.93005 9.17635 6.40345 9.17635 6.98518C9.17635 7.56719 9.65005 8.04059 10.2318 8.04059C10.3476 8.04059 10.4649 8.01839 10.5909 7.97274C10.6956 7.93495 10.8135 7.9665 10.8849 8.05284C10.9179 8.09248 10.9374 8.13925 10.9434 8.18787C11.0364 8.48607 11.0301 8.90217 10.9365 9.3147M10.2318 5.39998C11.0085 5.39998 11.5851 5.94598 11.8122 6.48747C12.2358 7.49731 11.9454 9.2587 10.923 10.1029C10.7733 10.2271 10.5687 10.2331 10.4139 10.117C10.2606 10.0024 10.2066 9.79776 10.2831 9.62049C10.4427 9.24819 10.4982 8.83745 10.4742 8.54978C10.3929 8.56358 10.3116 8.57079 10.2318 8.57079C9.35786 8.57079 8.6466 7.85917 8.6466 6.98525C8.6466 6.11133 9.35786 5.40001 10.2318 5.40001" fill="#595959"/>
<path d="M10.9365 9.31472C11.484 8.5515 11.6139 7.38444 11.3238 6.6923C11.1645 6.3128 10.7652 5.93005 10.2318 5.93005C9.65005 5.93005 9.17635 6.40345 9.17635 6.98518C9.17635 7.56719 9.65005 8.04059 10.2318 8.04059C10.3476 8.04059 10.4649 8.01839 10.5909 7.97274C10.6956 7.93495 10.8135 7.9665 10.8849 8.05284C10.9179 8.09248 10.9374 8.13925 10.9434 8.18787C11.0364 8.48607 11.0301 8.90217 10.9365 9.3147M10.2318 5.39998C11.0085 5.39998 11.5851 5.94598 11.8122 6.48747C12.2358 7.49731 11.9454 9.2587 10.923 10.1029C10.7733 10.2271 10.5687 10.2331 10.4139 10.117C10.2606 10.0024 10.2066 9.79776 10.2831 9.62049C10.4427 9.24819 10.4982 8.83745 10.4742 8.54978C10.3929 8.56358 10.3116 8.57079 10.2318 8.57079C9.35786 8.57079 8.6466 7.85917 8.6466 6.98525C8.6466 6.11133 9.35786 5.40001 10.2318 5.40001" stroke="#595959" stroke-width="0.4"/>
<path fill-rule="evenodd" clip-rule="evenodd" d="M7.08921 9.31509C7.63729 8.55187 7.7669 7.38519 7.4768 6.69286C7.31749 6.31329 6.91817 5.93054 6.38479 5.93054C5.80308 5.93054 5.32938 6.40394 5.32938 6.98595C5.32938 7.56765 5.80308 8.04107 6.38479 8.04107C6.5003 8.04107 6.61759 8.01888 6.74327 7.97359C6.84646 7.9364 6.96315 7.96609 7.03487 8.04976C7.0688 8.0894 7.08981 8.13736 7.09642 8.18657C7.18936 8.48538 7.18335 8.90177 7.08921 9.31519M6.3848 5.40047C7.16183 5.40047 7.73842 5.94677 7.96551 6.48796C8.38879 7.49808 8.09839 9.25918 7.07601 10.1034C6.92687 10.2276 6.72167 10.2336 6.5669 10.1175C6.4136 10.0028 6.35984 9.79855 6.43609 9.62097C6.5957 9.24898 6.65086 8.83822 6.62747 8.55085C6.54648 8.56437 6.46608 8.57127 6.38478 8.57127C5.51088 8.57127 4.79985 7.85993 4.79985 6.98603C4.79985 6.11183 5.51088 5.4005 6.38478 5.4005" fill="#595959"/>
<path d="M7.08921 9.31509C7.63729 8.55187 7.7669 7.38519 7.4768 6.69286C7.31749 6.31329 6.91817 5.93054 6.38479 5.93054C5.80308 5.93054 5.32938 6.40394 5.32938 6.98595C5.32938 7.56765 5.80308 8.04107 6.38479 8.04107C6.5003 8.04107 6.61759 8.01888 6.74327 7.97359C6.84646 7.9364 6.96315 7.96609 7.03487 8.04976C7.0688 8.0894 7.08981 8.13736 7.09642 8.18657C7.18936 8.48538 7.18335 8.90177 7.08921 9.31519M6.3848 5.40047C7.16183 5.40047 7.73842 5.94677 7.96551 6.48796C8.38879 7.49808 8.09839 9.25918 7.07601 10.1034C6.92687 10.2276 6.72167 10.2336 6.5669 10.1175C6.4136 10.0028 6.35984 9.79855 6.43609 9.62097C6.5957 9.24898 6.65086 8.83822 6.62747 8.55085C6.54648 8.56437 6.46608 8.57127 6.38478 8.57127C5.51088 8.57127 4.79985 7.85993 4.79985 6.98603C4.79985 6.11183 5.51088 5.4005 6.38478 5.4005" stroke="#595959" stroke-width="0.4"/>
</svg>
