<svg width="16" height="15" viewBox="0 0 16 15" fill="none" xmlns="http://www.w3.org/2000/svg">
<path d="M8.46545 0.600098C4.75167 0.600098 1.73079 3.6209 1.73079 7.33475C1.73079 7.96656 1.81899 8.59304 1.99183 9.19797L0.812687 13.6013C0.778535 13.7292 0.814469 13.8677 0.909945 13.9614C0.980181 14.0316 1.07551 14.0713 1.17277 14.0713C1.20514 14.0713 1.23751 14.0677 1.26824 14.0587L4.94431 13.0757C6.00109 13.7274 7.21437 14.0712 8.46729 14.0712C12.1793 14.0692 15.2 11.0484 15.2 7.33461C15.2 3.6208 12.1794 0.600336 8.46539 0.600336L8.46545 0.600098ZM8.46545 13.324C7.3025 13.324 6.17566 12.9909 5.20885 12.3591C5.14767 12.3195 5.07744 12.2979 5.00542 12.2979C4.97305 12.2979 4.94068 12.3015 4.90995 12.3106L1.69866 13.1709L2.7391 9.28945C2.75706 9.22278 2.75528 9.15077 2.73553 9.08424C2.5627 8.51717 2.47628 7.92859 2.47628 7.3345C2.47628 4.03114 5.16402 1.34526 8.46551 1.34526C11.7671 1.34526 14.4547 4.03107 14.4547 7.3345C14.4547 10.6379 11.767 13.3237 8.46551 13.3237L8.46545 13.324Z" fill="#595959" stroke="#595959"/>
</svg>
