<svg width="16" height="16" viewBox="0 0 16 16" fill="none" xmlns="http://www.w3.org/2000/svg">
<path d="M5.45809 7.88629C5.45809 6.25358 6.75194 4.92893 8.41545 4.92893C10.0482 4.92893 11.3728 6.25358 11.3728 7.88629C11.3728 9.519 10.0482 10.8436 8.41545 10.8436C6.75194 10.8436 5.45809 9.519 5.45809 7.88629ZM8.41545 6.40761C7.58369 6.40761 6.93677 7.08534 6.93677 7.88629C6.93677 8.71805 7.58369 9.36497 8.41545 9.36497C9.2164 9.36497 9.89413 8.71805 9.89413 7.88629C9.89413 7.08534 9.2164 6.40761 8.41545 6.40761ZM9.55527 0C10.233 0 10.8183 0.492893 10.9723 1.13982L11.2188 2.15641C11.496 2.27963 11.7425 2.43366 11.9581 2.58769L12.9747 2.27963C13.6216 2.0948 14.3302 2.37205 14.669 2.95736L15.8088 4.95974C16.1477 5.54505 16.0245 6.28439 15.5316 6.74647L14.7923 7.45501C14.7923 7.60904 14.8231 7.76307 14.8231 7.88629C14.8231 8.04032 14.7923 8.19435 14.7923 8.31757L15.5316 9.05691C16.0245 9.519 16.1477 10.2583 15.8088 10.8436L14.669 12.846C14.3302 13.4313 13.6216 13.7086 12.9747 13.5238L11.9581 13.2157C11.7425 13.3697 11.496 13.5238 11.2188 13.647L10.9723 14.6636C10.8183 15.3105 10.233 15.7726 9.55527 15.7726H7.24483C6.5671 15.7726 5.98179 15.3105 5.82776 14.6636L5.58132 13.647C5.30406 13.5238 5.05762 13.3697 4.84198 13.2157L3.82539 13.5238C3.17846 13.7086 2.46993 13.4313 2.13107 12.846L0.991251 10.8436C0.652387 10.2583 0.77561 9.519 1.2685 9.05691L2.00784 8.31757C2.00784 8.19435 2.00784 8.04032 2.00784 7.88629C2.00784 7.76307 2.00784 7.60904 2.00784 7.45501L1.2685 6.74647C0.77561 6.28439 0.652387 5.54505 0.991251 4.95974L2.13107 2.95736C2.46993 2.37205 3.17846 2.0948 3.82539 2.27963L4.84198 2.58769C5.05762 2.43366 5.30406 2.27963 5.58132 2.15641L5.82776 1.13982C5.98179 0.492893 6.5671 0 7.24483 0H9.55527ZM6.84436 3.2038L6.50549 3.35783C6.10502 3.51186 5.73535 3.7275 5.42729 3.97395L5.11923 4.2204L3.42491 3.6967L2.28509 5.69908L3.54813 6.9005L3.51733 7.27017C3.48652 7.48581 3.48652 7.70145 3.48652 7.88629C3.48652 8.10193 3.48652 8.31757 3.51733 8.53321L3.54813 8.90288L2.28509 10.1043L3.42491 12.1067L5.11923 11.583L5.42729 11.8294C5.73535 12.0759 6.10502 12.2915 6.50549 12.4455L6.84436 12.5996L7.24483 14.2939H9.55527L9.95574 12.5996L10.2946 12.4455C10.6951 12.2915 11.0648 12.0759 11.3728 11.8294L11.6809 11.583L13.3752 12.1067L14.515 10.1043L13.252 8.90288L13.2828 8.53321C13.3136 8.31757 13.3444 8.10193 13.3444 7.88629C13.3444 7.70145 13.3136 7.48581 13.2828 7.27017L13.252 6.9005L14.515 5.69908L13.3752 3.6967L11.6809 4.2204L11.3728 3.97395C11.0648 3.7275 10.6951 3.51186 10.2946 3.35783L9.95574 3.2038L9.55527 1.47868H7.24483L6.84436 3.2038Z" fill="#595959"/>
</svg>
