<svg width="64" height="57" viewBox="0 0 64 57" fill="none" xmlns="http://www.w3.org/2000/svg">
<path d="M56.7591 28.8445V28.1072C56.7591 22.2911 52.0274 17.5594 46.2113 17.5594L33.6992 17.5588V13.0518C36.538 12.2987 38.6361 9.70783 38.6361 6.63671C38.6361 2.97668 35.6588 0 31.9994 0C28.34 0 25.3627 2.97668 25.3627 6.63671C25.3627 9.70843 27.4614 12.2986 30.2996 13.0518V17.5588H17.7881C11.9714 17.5588 7.23973 22.2905 7.23973 28.1066V28.8439C3.12098 29.6399 0 33.2729 0 37.6197C0 41.973 3.12743 45.6084 7.25324 46.3998C7.52833 51.9713 12.1486 56.4208 17.7881 56.4208H46.2125C51.8522 56.4208 56.4717 51.9713 56.7474 46.3998C60.8726 45.6085 64 41.9736 64 37.6197C64 33.2729 60.879 29.6397 56.7597 28.8445L56.7591 28.8445ZM7.23943 42.8929C5.01353 42.1738 3.39876 40.0827 3.39876 37.6199C3.39876 35.1581 5.01353 33.0666 7.23943 32.3481V42.8929ZM28.7612 6.63792C28.7612 4.85243 30.214 3.40028 31.9988 3.40028C33.7836 3.40028 35.2364 4.85256 35.2364 6.63792C35.2364 8.42328 33.7836 9.87452 31.9988 9.87452C30.214 9.87452 28.7612 8.42282 28.7612 6.63792ZM53.3596 45.8734C53.3596 49.815 50.1524 53.0222 46.2108 53.0222H17.7865C13.8443 53.0222 10.6371 49.815 10.6371 45.8734V28.1071C10.6371 24.1655 13.8443 20.9584 17.7865 20.9584H46.2108C50.1524 20.9584 53.3596 24.1655 53.3596 28.1071V45.8734ZM56.758 42.8926V32.3476C58.9839 33.0667 60.5987 35.1578 60.5987 37.6194C60.5993 40.0829 58.9839 42.1733 56.758 42.8924V42.8926Z" fill="black"/>
</svg>
