<svg width="29" height="25" viewBox="0 0 29 25" fill="none" xmlns="http://www.w3.org/2000/svg">
<path d="M16.0788 21.9329V3.06714C16.0788 2.48575 15.9125 1.92817 15.6164 1.51706C15.3203 1.10596 14.9188 0.875 14.5001 0.875C14.0814 0.875 13.6798 1.10596 13.3838 1.51706C13.0877 1.92817 12.9214 2.48575 12.9214 3.06714V21.9329C12.9214 22.5142 13.0877 23.0718 13.3838 23.4829C13.6798 23.894 14.0814 24.125 14.5001 24.125C14.9188 24.125 15.3203 23.894 15.6164 23.4829C15.9125 23.0718 16.0788 22.5142 16.0788 21.9329Z" fill="#70B4EB"/>
<path d="M6.60656 17.15C6.60656 17.6785 6.77289 18.1854 7.06895 18.5592C7.36502 18.9329 7.76657 19.1429 8.18527 19.1429C8.60396 19.1429 9.00551 18.9329 9.30158 18.5592C9.59764 18.1854 9.76397 17.6785 9.76397 17.15V7.85C9.76397 7.32146 9.59764 6.81457 9.30158 6.44084C9.00551 6.06711 8.60396 5.85714 8.18527 5.85714C7.76657 5.85714 7.36502 6.06711 7.06895 6.44084C6.77289 6.81457 6.60656 7.32146 6.60656 7.85V17.15Z" fill="#70B4EB"/>
<path d="M20.8149 5.85714C20.3962 5.85714 19.9946 6.06711 19.6986 6.44084C19.4025 6.81457 19.2362 7.32146 19.2362 7.85V17.15C19.2362 17.6785 19.4025 18.1854 19.6986 18.5592C19.9946 18.9329 20.3962 19.1429 20.8149 19.1429C21.2336 19.1429 21.6351 18.9329 21.9312 18.5592C22.2273 18.1854 22.3936 17.6785 22.3936 17.15V7.85C22.3936 7.32146 22.2273 6.81457 21.9312 6.44084C21.6351 6.06711 21.2336 5.85714 20.8149 5.85714Z" fill="#70B4EB"/>
<path d="M27.1297 9.17857C26.711 9.17857 26.3095 9.40353 26.0134 9.80396C25.7173 10.2044 25.551 10.7475 25.551 11.3138V13.6862C25.551 14.2525 25.7173 14.7956 26.0134 15.196C26.3095 15.5965 26.711 15.8214 27.1297 15.8214C27.5484 15.8214 27.95 15.5965 28.246 15.196C28.5421 14.7956 28.7084 14.2525 28.7084 13.6862V11.3138C28.7084 10.7475 28.5421 10.2044 28.246 9.80396C27.95 9.40353 27.5484 9.17857 27.1297 9.17857Z" fill="#70B4EB"/>
<path d="M1.87045 9.17857C1.45175 9.17857 1.0502 9.40353 0.754138 9.80396C0.458074 10.2044 0.291748 10.7475 0.291748 11.3138V13.6862C0.291748 14.2525 0.458074 14.7956 0.754138 15.196C1.0502 15.5965 1.45175 15.8214 1.87045 15.8214C2.28915 15.8214 2.6907 15.5965 2.98676 15.196C3.28283 14.7956 3.44916 14.2525 3.44916 13.6862V11.3138C3.44916 10.7475 3.28283 10.2044 2.98676 9.80396C2.6907 9.40353 2.28915 9.17857 1.87045 9.17857Z" fill="#70B4EB"/>
</svg>
