<svg width="16" height="13" viewBox="0 0 16 13" fill="none" xmlns="http://www.w3.org/2000/svg">
<path d="M7.9893 0.399903C7.94663 0.399837 7.90377 0.402964 7.861 0.408752C7.68994 0.431902 7.52122 0.502481 7.38193 0.626167C7.38193 0.626378 7.38193 0.626589 7.38193 0.626799L4.39752 3.2794H2.25623C1.45776 3.2794 0.800049 3.93711 0.800049 4.73558V7.64794C0.800049 8.44641 1.45776 9.10412 2.25623 9.10412H4.39752L7.38193 11.7567C7.66048 12.0044 8.05553 12.0408 8.35461 11.9065C8.65369 11.7722 8.88994 11.4526 8.88994 11.0798V1.3037C8.88994 0.931087 8.65435 0.611345 8.35525 0.47701C8.24308 0.426635 8.11731 0.400103 7.9893 0.399903ZM14.7147 1.17603C14.5859 1.17603 14.4625 1.22717 14.3714 1.3182C14.2804 1.40922 14.2293 1.53269 14.2293 1.66142C14.2293 1.79015 14.2804 1.91362 14.3714 2.00465C14.4625 2.09567 14.5859 2.14681 14.7147 2.14681C14.8434 2.14681 14.9669 2.09567 15.0579 2.00465C15.1489 1.91362 15.2 1.79015 15.2 1.66142C15.2 1.53269 15.1489 1.40922 15.0579 1.3182C14.9669 1.22717 14.8434 1.17603 14.7147 1.17603ZM7.91915 1.4478V10.9357L4.9044 8.25594C4.81559 8.177 4.7009 8.13337 4.58207 8.13333H2.25623C1.98231 8.13333 1.77084 7.92186 1.77084 7.64794V4.73558C1.77084 4.46165 1.98231 4.25018 2.25623 4.25018H4.58207C4.7009 4.25014 4.81559 4.20652 4.9044 4.12757L7.91915 1.4478ZM12.4495 2.47041C12.3208 2.47041 12.1973 2.52155 12.1063 2.61258C12.0152 2.70361 11.9641 2.82707 11.9641 2.9558C11.9641 3.08454 12.0152 3.208 12.1063 3.29903C12.1973 3.39006 12.3208 3.4412 12.4495 3.4412C12.5782 3.4412 12.7017 3.39006 12.7927 3.29903C12.8837 3.208 12.9349 3.08454 12.9349 2.9558C12.9349 2.82707 12.8837 2.70361 12.7927 2.61258C12.7017 2.52155 12.5782 2.47041 12.4495 2.47041ZM10.1843 3.4412C10.0556 3.4412 9.93212 3.49233 9.84109 3.58336C9.75006 3.67439 9.69893 3.79785 9.69893 3.92659C9.69893 4.05532 9.75006 4.17878 9.84109 4.26981C9.93212 4.36084 10.0556 4.41198 10.1843 4.41198C10.3131 4.41198 10.4365 4.36084 10.5275 4.26981C10.6186 4.17878 10.6697 4.05532 10.6697 3.92659C10.6697 3.79785 10.6186 3.67439 10.5275 3.58336C10.4365 3.49233 10.3131 3.4412 10.1843 3.4412ZM10.1843 5.70636C10.0556 5.70636 9.93212 5.7575 9.84109 5.84853C9.75006 5.93956 9.69893 6.06302 9.69893 6.19176C9.69893 6.32049 9.75006 6.44395 9.84109 6.53498C9.93212 6.62601 10.0556 6.67715 10.1843 6.67715C10.3131 6.67715 10.4365 6.62601 10.5275 6.53498C10.6186 6.44395 10.6697 6.32049 10.6697 6.19176C10.6697 6.06302 10.6186 5.93956 10.5275 5.84853C10.4365 5.7575 10.3131 5.70636 10.1843 5.70636ZM12.4495 5.70636C12.3208 5.70636 12.1973 5.7575 12.1063 5.84853C12.0152 5.93956 11.9641 6.06302 11.9641 6.19176C11.9641 6.32049 12.0152 6.44395 12.1063 6.53498C12.1973 6.62601 12.3208 6.67715 12.4495 6.67715C12.5782 6.67715 12.7017 6.62601 12.7927 6.53498C12.8837 6.44395 12.9349 6.32049 12.9349 6.19176C12.9349 6.06302 12.8837 5.93956 12.7927 5.84853C12.7017 5.7575 12.5782 5.70636 12.4495 5.70636ZM14.7147 5.70636C14.5859 5.70636 14.4625 5.7575 14.3714 5.84853C14.2804 5.93956 14.2293 6.06302 14.2293 6.19176C14.2293 6.32049 14.2804 6.44395 14.3714 6.53498C14.4625 6.62601 14.5859 6.67715 14.7147 6.67715C14.8434 6.67715 14.9669 6.62601 15.0579 6.53498C15.1489 6.44395 15.2 6.32049 15.2 6.19176C15.2 6.06302 15.1489 5.93956 15.0579 5.84853C14.9669 5.7575 14.8434 5.70636 14.7147 5.70636ZM10.1843 7.97153C10.0556 7.97153 9.93212 8.02267 9.84109 8.1137C9.75006 8.20473 9.69893 8.32819 9.69893 8.45693C9.69893 8.58566 9.75006 8.70912 9.84109 8.80015C9.93212 8.89118 10.0556 8.94232 10.1843 8.94232C10.3131 8.94232 10.4365 8.89118 10.5275 8.80015C10.6186 8.70912 10.6697 8.58566 10.6697 8.45693C10.6697 8.32819 10.6186 8.20473 10.5275 8.1137C10.4365 8.02267 10.3131 7.97153 10.1843 7.97153ZM12.4495 8.94232C12.3208 8.94232 12.1973 8.99346 12.1063 9.08449C12.0152 9.17552 11.9641 9.29898 11.9641 9.42771C11.9641 9.55645 12.0152 9.67991 12.1063 9.77094C12.1973 9.86197 12.3208 9.91311 12.4495 9.91311C12.5782 9.91311 12.7017 9.86197 12.7927 9.77094C12.8837 9.67991 12.9349 9.55645 12.9349 9.42771C12.9349 9.29898 12.8837 9.17552 12.7927 9.08449C12.7017 8.99346 12.5782 8.94232 12.4495 8.94232ZM14.7147 10.2367C14.5859 10.2367 14.4625 10.2878 14.3714 10.3789C14.2804 10.4699 14.2293 10.5934 14.2293 10.7221C14.2293 10.8508 14.2804 10.9743 14.3714 11.0653C14.4625 11.1563 14.5859 11.2075 14.7147 11.2075C14.8434 11.2075 14.9669 11.1563 15.0579 11.0653C15.1489 10.9743 15.2 10.8508 15.2 10.7221C15.2 10.5934 15.1489 10.4699 15.0579 10.3789C14.9669 10.2878 14.8434 10.2367 14.7147 10.2367Z" fill="#595959" stroke="#595959" stroke-width="0.75"/>
</svg>
