<svg width="16" height="12" viewBox="0 0 16 12" fill="none" xmlns="http://www.w3.org/2000/svg">
<path d="M8.81392 10.8686V1.13143C8.81392 0.831355 8.72807 0.543572 8.57527 0.331388C8.42246 0.119204 8.21521 0 7.9991 0C7.783 0 7.57575 0.119204 7.42294 0.331388C7.27014 0.543572 7.18429 0.831355 7.18429 1.13143V10.8686C7.18429 11.1686 7.27014 11.4564 7.42294 11.6686C7.57575 11.8808 7.783 12 7.9991 12C8.21521 12 8.42246 11.8808 8.57527 11.6686C8.72807 11.4564 8.81392 11.1686 8.81392 10.8686Z" fill="#595959"/>
<path d="M3.92503 8.4C3.92503 8.6728 4.01088 8.93442 4.16368 9.12731C4.31649 9.32021 4.52374 9.42857 4.73985 9.42857C4.95595 9.42857 5.1632 9.32021 5.31601 9.12731C5.46881 8.93442 5.55466 8.6728 5.55466 8.4V3.6C5.55466 3.32721 5.46881 3.06559 5.31601 2.87269C5.1632 2.6798 4.95595 2.57143 4.73985 2.57143C4.52374 2.57143 4.31649 2.6798 4.16368 2.87269C4.01088 3.06559 3.92503 3.32721 3.92503 3.6V8.4Z" fill="#595959"/>
<path d="M11.2584 2.57143C11.0423 2.57143 10.835 2.6798 10.6822 2.87269C10.5294 3.06559 10.4435 3.32721 10.4435 3.6V8.4C10.4435 8.6728 10.5294 8.93442 10.6822 9.12731C10.835 9.32021 11.0423 9.42857 11.2584 9.42857C11.4745 9.42857 11.6817 9.32021 11.8345 9.12731C11.9873 8.93442 12.0732 8.6728 12.0732 8.4V3.6C12.0732 3.32721 11.9873 3.06559 11.8345 2.87269C11.6817 2.6798 11.4745 2.57143 11.2584 2.57143Z" fill="#595959"/>
<path d="M14.5176 4.28572C14.3015 4.28572 14.0943 4.40182 13.9415 4.6085C13.7887 4.81517 13.7028 5.09548 13.7028 5.38776V6.61225C13.7028 6.90453 13.7887 7.18483 13.9415 7.39151C14.0943 7.59818 14.3015 7.71429 14.5176 7.71429C14.7337 7.71429 14.941 7.59818 15.0938 7.39151C15.2466 7.18483 15.3324 6.90453 15.3324 6.61225V5.38776C15.3324 5.09548 15.2466 4.81517 15.0938 4.6085C14.941 4.40182 14.7337 4.28572 14.5176 4.28572Z" fill="#595959"/>
<path d="M1.48059 4.28572C1.26448 4.28572 1.05723 4.40182 0.904425 4.6085C0.751617 4.81517 0.665771 5.09548 0.665771 5.38776V6.61225C0.665771 6.90453 0.751617 7.18483 0.904425 7.39151C1.05723 7.59818 1.26448 7.71429 1.48059 7.71429C1.69669 7.71429 1.90394 7.59818 2.05675 7.39151C2.20956 7.18483 2.2954 6.90453 2.2954 6.61225V5.38776C2.2954 5.09548 2.20956 4.81517 2.05675 4.6085C1.90394 4.40182 1.69669 4.28572 1.48059 4.28572Z" fill="#595959"/>
</svg>
