<svg width="150" height="64" viewBox="0 0 150 64" fill="none" xmlns="http://www.w3.org/2000/svg">
<path d="M114.189 53.209L114.899 54.6669L116.497 54.8878L115.343 55.9924L115.609 57.5829L114.189 56.8318L112.725 57.5829L112.991 55.9924L111.837 54.8878L113.435 54.6669L114.189 53.209Z" fill="#C6D7FF"/>
<path d="M1.42195 13.9119L1.68823 14.4421L2.26516 14.5304C2.3983 14.5304 2.48706 14.7513 2.35392 14.8397L1.91013 15.2373L1.99888 15.8117C2.04326 15.9442 1.86575 16.0768 1.73261 15.9884L1.20005 15.7233L0.667492 15.9884C0.534353 16.0768 0.401218 15.9442 0.401218 15.8117L0.489976 15.2373L0.0461783 14.8397C-0.0425811 14.7513 0.00179723 14.5746 0.134936 14.5304L0.711874 14.4421L0.978149 13.9119C1.15567 13.7794 1.33319 13.7794 1.42195 13.9119Z" fill="#C6D7FF"/>
<path d="M15.0488 22.9933C15.0488 23.3026 14.7825 23.5676 14.4718 23.5676C14.1612 23.5676 13.8949 23.3026 13.8949 22.9933C13.8949 22.684 14.1612 22.4189 14.4718 22.4189C14.7825 22.4189 15.0488 22.684 15.0488 22.9933Z" fill="#C6D7FF"/>
<path d="M149.108 32.4439C149.108 32.8857 148.753 33.2834 148.265 33.2834C147.821 33.2834 147.421 32.9299 147.421 32.4439C147.421 32.0021 147.776 31.6045 148.265 31.6045C148.708 31.6045 149.108 31.9579 149.108 32.4439Z" fill="#407BFF"/>
<path d="M116.803 44.8878C116.803 45.1971 116.537 45.4622 116.226 45.4622C115.916 45.4622 115.65 45.1971 115.65 44.8878C115.65 44.5786 115.916 44.3135 116.226 44.3135C116.537 44.3135 116.803 44.5786 116.803 44.8878Z" fill="#407BFF"/>
<path d="M15.9363 8.1487C16.2549 8.1487 16.5132 7.89155 16.5132 7.57435C16.5132 7.25715 16.2549 7 15.9363 7C15.6177 7 15.3594 7.25715 15.3594 7.57435C15.3594 7.89155 15.6177 8.1487 15.9363 8.1487Z" fill="#407BFF"/>
<path d="M111.997 24.7533L109.404 37.3516L107.737 35.7204L104.894 37.7512L102.726 35.0489L97.8556 38.5995L93.6982 31.6206L89.0584 34.3475L87.2182 31.8001L81.3263 35.1304L79.5511 31.3243L83.6814 11.2578L105.826 15.8442L111.997 24.7533Z" fill="#EBEBEB"/>
<path d="M105.826 15.8438L112 24.7528L104.319 23.1624L105.826 15.8438Z" fill="#DBDBDB"/>
<path d="M108.854 39.8718L105.048 58.356L75.2258 52.1819L79.001 33.8418L80.7735 37.6506L86.6654 34.3203L88.5056 36.865L93.1454 34.1381L97.3055 41.117L102.173 37.5664L104.344 40.2687L107.184 38.2379L108.854 39.8718Z" fill="#EBEBEB"/>
<path d="M85.4061 63.8425H34.8933L42.198 22.4199H92.7108L85.4061 63.8425Z" fill="#DADADA"/>
<path d="M59.4865 18.1309H42.954L42.198 22.4198H59.8894L59.4865 18.1309Z" fill="#DADADA"/>
<path d="M85.4061 63.8425H34.8933L42.198 22.4199H92.7108L85.4061 63.8425Z" fill="#ACD7FF"/>
<path d="M59.4865 18.1309H42.954L42.198 22.4198H59.8894L59.4865 18.1309Z" fill="#ACD7FF"/>
<path d="M75.8041 39.5984L45.4096 41.4851L42.9948 2.34445L65.5624 0.944336L73.8501 7.915L75.8041 39.5984Z" fill="#EBEBEB"/>
<path d="M65.5623 0.944336L73.8499 7.915L66.023 8.40164L65.5623 0.944336Z" fill="#DBDBDB"/>
<path d="M58.6124 9.00787C57.5337 9.06317 56.7056 9.67977 56.2254 10.4689C55.7449 11.2581 55.5194 12.1877 55.3069 13.1196C55.0606 14.2003 54.9352 14.9751 54.9032 15.5599C54.8711 16.1443 54.8382 16.6023 55.269 17.0426C55.8503 17.4857 56.3743 17.2626 56.843 16.8733C57.51 17.5702 58.3375 18.1266 59.0644 18.1162C59.9132 18.0151 60.659 17.4363 61.0801 16.7531C61.6089 17.1964 62.1459 17.0684 62.6041 16.752C62.9987 16.279 62.9296 15.825 62.8514 15.2449C62.7732 14.6648 62.5869 13.9021 62.2559 12.8443C61.9709 11.9337 61.6717 11.0173 61.13 10.263C60.3584 9.47955 59.7133 8.94773 58.6126 9.00829L58.6124 9.00787ZM58.6954 10.5256C59.3445 10.4927 59.6314 10.7012 59.972 11.1761C60.3129 11.651 60.5996 12.4333 60.8756 13.3148C61.1413 14.1641 61.2561 14.6828 61.3335 15.1148C61.1238 15.0046 60.8421 14.9241 60.6243 15.0121C60.3395 15.1276 60.2516 15.2873 60.1735 15.3983C59.866 15.9189 59.6508 16.5549 59.0041 16.5971C58.1972 16.6125 57.9692 15.9104 57.5708 15.4418C57.4695 15.3389 57.344 15.1951 57.0581 15.1293C56.8411 15.0793 56.5973 15.1836 56.4057 15.3095C56.4487 14.8727 56.5221 14.3465 56.7198 13.4789C56.9249 12.5795 57.1494 11.7837 57.4518 11.2873C57.7539 10.791 58.0392 10.5585 58.6952 10.525L58.6954 10.5256ZM59.0036 18.8787C57.1046 18.954 55.3 19.4091 53.8833 20.246C52.467 21.0829 51.3955 22.3751 51.2577 24.0099C51.2886 24.5551 51.2556 25.1386 51.2756 25.6134C51.3522 26.9706 52.2099 27.7459 53.3368 27.9794C54.0248 28.1156 54.9009 28.1433 56.0934 28.096C58.361 28.0824 60.6736 27.8803 62.6203 27.7897C63.5616 27.7128 64.5718 27.6778 65.4032 27.4181C66.6108 26.9706 67.2831 26.1117 67.2564 24.8257C67.2439 24.3504 67.1741 23.8992 67.1572 23.4752C67.1578 23.4435 67.1565 23.4118 67.1535 23.3803C66.8863 21.7584 65.7125 20.5586 64.2268 19.8365C62.4501 19.1581 60.5767 18.8286 59.003 18.8791L59.0036 18.8787ZM59.0638 20.3974C60.7703 20.3297 62.4157 20.6284 63.6222 21.2149C64.8141 21.7944 65.5278 22.6028 65.707 23.6038C65.7306 24.0935 65.7938 24.5355 65.8024 24.8595C65.8355 25.5496 65.4034 25.8189 64.9704 25.9618C64.4867 26.1174 63.7098 26.2376 62.5717 26.2708C60.3122 26.3444 58.0181 26.5617 56.079 26.5758C55.2556 26.5623 54.3913 26.6342 53.5961 26.4841C52.9546 26.3844 52.7545 26.0479 52.7286 25.5442C52.7126 25.1938 52.7367 24.6884 52.7172 24.107C52.8169 23.0917 53.4616 22.2427 54.5956 21.5729C55.7433 20.8947 57.3572 20.4653 59.0637 20.3977L59.0638 20.3974Z" fill="#DBDBDB"/>
<path d="M85.3331 63.8427H34.7109L27.5239 23.9238H78.1445L85.3331 63.8427Z" fill="#2C91EF"/>
<path opacity="0.9" d="M45.0661 48.3259C46.2281 48.3259 47.17 47.384 47.17 46.222C47.17 45.0601 46.2281 44.1182 45.0661 44.1182C43.9042 44.1182 42.9622 45.0601 42.9622 46.222C42.9622 47.384 43.9042 48.3259 45.0661 48.3259Z" fill="white"/>
<path opacity="0.9" d="M61.6981 48.3259C62.86 48.3259 63.802 47.384 63.802 46.222C63.802 45.0601 62.86 44.1182 61.6981 44.1182C60.5362 44.1182 59.5942 45.0601 59.5942 46.222C59.5942 47.384 60.5362 48.3259 61.6981 48.3259Z" fill="white"/>
<path opacity="0.9" d="M56.4029 48.6661L56.2885 48.4456C56.2769 48.4257 55.191 46.4163 53.0042 46.4163C51.0147 46.4163 50.5173 48.308 50.5024 48.3892L50.4444 48.6296L49.9619 48.5136L50.02 48.2715C50.02 48.2483 50.6118 45.9189 53.0042 45.9189C55.491 45.9189 56.6797 48.1206 56.7278 48.2151L56.8439 48.434L56.4029 48.6661Z" fill="white"/>
</svg>
