<svg width="16" height="14" viewBox="0 0 16 14" fill="none" xmlns="http://www.w3.org/2000/svg">
<path d="M2 0.5H14C14.8284 0.5 15.5 1.17157 15.5 2V10C15.5 10.8284 14.8284 11.5 14 11.5H11.6056C11.112 11.5 10.6295 11.6461 10.2188 11.9199L8.27735 13.2142C8.1094 13.3261 7.8906 13.3261 7.72265 13.2142L5.7812 11.9199C5.37053 11.6461 4.88801 11.5 4.39445 11.5H2C1.17157 11.5 0.5 10.8284 0.5 10V2C0.5 1.17157 1.17157 0.5 2 0.5Z" stroke="black"/>
<path d="M10 5.5H13" stroke="black"/>
<path d="M11.5 7L11.5 4" stroke="black"/>
<circle cx="6" cy="5" r="1.5" stroke="black"/>
<path d="M8.5 9C8.5 7.34315 7.32398 6.5 6 6.5C4.67602 6.5 3.5 7.34315 3.5 9" stroke="black"/>
</svg>
