<svg width="16" height="16" viewBox="0 0 16 16" fill="none" xmlns="http://www.w3.org/2000/svg">
<path d="M8.05428 14.9633C7.69196 14.9633 7.3283 14.9364 6.96673 14.8808C3.45714 14.3414 1.81734 11.4196 1.64162 11.0882C0.335904 8.62224 0.566091 5.52024 2.21414 3.36867C3.51042 1.6766 5.84862 0.284216 7.36542 0.985445C7.78239 1.17824 8.38447 1.65015 8.70901 2.34535C8.86394 2.67727 8.88134 2.89864 8.90549 3.20504C8.9224 3.42137 8.94373 3.69067 9.02376 4.09783C9.20762 5.03427 9.32921 5.65288 9.69556 5.8328C9.97343 5.96897 10.4017 5.80448 11.2554 5.47613C11.648 5.32524 11.8986 5.19863 12.1 5.09715C12.3999 4.94577 12.5966 4.846 12.9161 4.86206C13.3411 4.88387 13.9827 5.1246 14.6244 6.14792C15.5735 7.66067 15.2269 9.81189 14.4625 11.2728C13.2875 13.5188 10.7063 14.9633 8.05428 14.9633ZM6.48085 1.26728C5.22856 1.26728 3.55682 2.37996 2.5828 3.65126C1.04309 5.66116 0.82982 8.56249 2.05208 10.871C2.11753 10.9947 3.69548 13.9083 7.03736 14.422C9.85546 14.8551 12.8049 13.4403 14.0512 11.058C14.7541 9.71462 15.0825 7.75201 14.2313 6.39492C13.6955 5.54073 13.2076 5.34217 12.8924 5.32601C12.699 5.31596 12.5841 5.37332 12.3094 5.51195C12.1098 5.61258 11.8367 5.75047 11.4226 5.90969C10.4427 6.28648 9.95066 6.47559 9.49101 6.2497C8.91799 5.96816 8.77877 5.25983 8.56819 4.18747C8.48313 3.75395 8.4607 3.46995 8.44281 3.24159C8.42025 2.95526 8.40787 2.79765 8.28837 2.54183C8.0344 1.99737 7.54387 1.57954 7.17079 1.40696C6.96352 1.31148 6.73039 1.26728 6.48085 1.26728Z" fill="#595959" stroke="#595959"/>
<path d="M3.87645 8.99459C3.59699 8.99459 3.31519 8.91026 3.07202 8.73535C2.77381 8.52061 2.57757 8.20303 2.51949 7.84096C2.46151 7.47962 2.54841 7.11743 2.76389 6.82119C3.20845 6.2097 4.07011 6.07242 4.68443 6.51464C4.98264 6.72939 5.17887 7.04697 5.23695 7.40903C5.29493 7.77038 5.20815 8.13257 4.99267 8.42881C4.724 8.79822 4.30299 8.99459 3.87645 8.99459ZM3.87939 6.71933C3.5965 6.71933 3.31766 6.84949 3.13956 7.09426C2.99726 7.29 2.9399 7.529 2.97802 7.76753C3.01638 8.00654 3.14606 8.21651 3.34341 8.35844C3.75095 8.65174 4.32237 8.56092 4.61716 8.15546C4.75946 7.95972 4.8167 7.72072 4.77858 7.48231C4.74022 7.24318 4.61054 7.03333 4.41319 6.89128C4.25177 6.77533 4.06474 6.71933 3.87939 6.71933Z" fill="#595959"/>
<path d="M5.76913 12.6067C5.4898 12.6067 5.20801 12.5225 4.96483 12.3475C4.66662 12.1328 4.47025 11.8151 4.4123 11.453C4.35432 11.0916 4.44122 10.7296 4.6567 10.4332C5.10151 9.82147 5.96292 9.68445 6.57724 10.1267C6.87545 10.3414 7.07181 10.6591 7.12977 11.0211C7.18774 11.3824 7.10096 11.7445 6.88548 12.0408C6.61681 12.4102 6.19568 12.6067 5.76913 12.6067ZM5.7722 10.3314C5.48943 10.3314 5.21047 10.4615 5.03237 10.7063C4.89007 10.902 4.83271 11.141 4.87083 11.3794C4.90919 11.6186 5.03887 11.8285 5.23622 11.9705C5.6435 12.2638 6.21505 12.1729 6.50997 11.7675C6.65227 11.5717 6.70951 11.3327 6.67139 11.0943C6.63303 10.8552 6.50335 10.6453 6.306 10.5033C6.1447 10.3874 5.95764 10.3314 5.7722 10.3314Z" fill="#595959"/>
<path d="M9.86062 12.9576C9.58128 12.9576 9.29949 12.8734 9.05631 12.6983C8.7581 12.4835 8.56174 12.1658 8.50378 11.8037C8.44581 11.4423 8.53271 11.0803 8.74819 10.784C9.193 10.1724 10.0544 10.0353 10.6687 10.4775C10.9669 10.6922 11.1633 11.0099 11.2213 11.3719C11.2792 11.7332 11.1924 12.0953 10.977 12.3917C10.7084 12.7612 10.2873 12.9576 9.86062 12.9576ZM9.86368 10.6824C9.58092 10.6824 9.30196 10.8126 9.12386 11.0574C8.98155 11.253 8.92419 11.492 8.96231 11.7304C9.00068 11.9695 9.13036 12.1795 9.32771 12.3215C9.73524 12.615 10.3067 12.5239 10.6015 12.1186C10.7438 11.9228 10.801 11.6838 10.7629 11.4454C10.7245 11.2063 10.5948 10.9963 10.3975 10.8544C10.2362 10.7382 10.0491 10.6824 9.86368 10.6824Z" fill="#595959"/>
<path d="M12.3379 9.5515C12.0584 9.5515 11.7766 9.46729 11.5334 9.29226C11.2352 9.07752 11.039 8.75981 10.9809 8.39775C10.9229 8.0364 11.0098 7.67434 11.2253 7.3781C11.6701 6.76649 12.5315 6.62933 13.1458 7.07155C13.4439 7.2863 13.6403 7.60388 13.6984 7.96582C13.7563 8.32716 13.6696 8.68936 13.4541 8.98572C13.1853 9.35513 12.7643 9.5515 12.3379 9.5515ZM12.3408 7.27636C12.058 7.27636 11.7791 7.40653 11.601 7.6513C11.4587 7.84704 11.4013 8.08594 11.4394 8.32444C11.4778 8.56357 11.6075 8.77352 11.8048 8.91547C12.2124 9.2089 12.7838 9.11795 13.0786 8.71249C13.2209 8.51675 13.2781 8.27776 13.24 8.03935C13.2016 7.80034 13.0719 7.59037 12.8746 7.44844C12.7132 7.33213 12.5261 7.27636 12.3408 7.27636Z" fill="#595959"/>
<path d="M3.87645 8.99459C3.59699 8.99459 3.31519 8.91026 3.07202 8.73535C2.77381 8.52061 2.57757 8.20303 2.51949 7.84096C2.46151 7.47962 2.54841 7.11743 2.76389 6.82119C3.20845 6.2097 4.07011 6.07242 4.68443 6.51464C4.98264 6.72939 5.17887 7.04697 5.23695 7.40903C5.29493 7.77038 5.20815 8.13257 4.99267 8.42881C4.724 8.79822 4.30299 8.99459 3.87645 8.99459ZM3.87939 6.71933C3.5965 6.71933 3.31766 6.84949 3.13956 7.09426C2.99726 7.29 2.9399 7.529 2.97802 7.76753C3.01638 8.00654 3.14606 8.21651 3.34341 8.35844C3.75095 8.65174 4.32237 8.56092 4.61716 8.15546C4.75946 7.95972 4.8167 7.72072 4.77858 7.48231C4.74022 7.24318 4.61054 7.03333 4.41319 6.89128C4.25177 6.77533 4.06474 6.71933 3.87939 6.71933Z" stroke="#595959" stroke-width="0.4"/>
<path d="M5.76913 12.6067C5.4898 12.6067 5.20801 12.5225 4.96483 12.3475C4.66662 12.1328 4.47025 11.8151 4.4123 11.453C4.35432 11.0916 4.44122 10.7296 4.6567 10.4332C5.10151 9.82147 5.96292 9.68445 6.57724 10.1267C6.87545 10.3414 7.07181 10.6591 7.12977 11.0211C7.18774 11.3824 7.10096 11.7445 6.88548 12.0408C6.61681 12.4102 6.19568 12.6067 5.76913 12.6067ZM5.7722 10.3314C5.48943 10.3314 5.21047 10.4615 5.03237 10.7063C4.89007 10.902 4.83271 11.141 4.87083 11.3794C4.90919 11.6186 5.03887 11.8285 5.23622 11.9705C5.6435 12.2638 6.21505 12.1729 6.50997 11.7675C6.65227 11.5717 6.70951 11.3327 6.67139 11.0943C6.63303 10.8552 6.50335 10.6453 6.306 10.5033C6.1447 10.3874 5.95764 10.3314 5.7722 10.3314Z" stroke="#595959" stroke-width="0.4"/>
<path d="M9.86062 12.9576C9.58128 12.9576 9.29949 12.8734 9.05631 12.6983C8.7581 12.4835 8.56174 12.1658 8.50378 11.8037C8.44581 11.4423 8.53271 11.0803 8.74819 10.784C9.193 10.1724 10.0544 10.0353 10.6687 10.4775C10.9669 10.6922 11.1633 11.0099 11.2213 11.3719C11.2792 11.7332 11.1924 12.0953 10.977 12.3917C10.7084 12.7612 10.2873 12.9576 9.86062 12.9576ZM9.86368 10.6824C9.58092 10.6824 9.30196 10.8126 9.12386 11.0574C8.98155 11.253 8.92419 11.492 8.96231 11.7304C9.00068 11.9695 9.13036 12.1795 9.32771 12.3215C9.73524 12.615 10.3067 12.5239 10.6015 12.1186C10.7438 11.9228 10.801 11.6838 10.7629 11.4454C10.7245 11.2063 10.5948 10.9963 10.3975 10.8544C10.2362 10.7382 10.0491 10.6824 9.86368 10.6824Z" stroke="#595959" stroke-width="0.4"/>
<path d="M12.3379 9.5515C12.0584 9.5515 11.7766 9.46729 11.5334 9.29226C11.2352 9.07752 11.039 8.75981 10.9809 8.39775C10.9229 8.0364 11.0098 7.67434 11.2253 7.3781C11.6701 6.76649 12.5315 6.62933 13.1458 7.07155C13.4439 7.2863 13.6403 7.60388 13.6984 7.96582C13.7563 8.32716 13.6696 8.68936 13.4541 8.98572C13.1853 9.35513 12.7643 9.5515 12.3379 9.5515ZM12.3408 7.27636C12.058 7.27636 11.7791 7.40653 11.601 7.6513C11.4587 7.84704 11.4013 8.08594 11.4394 8.32444C11.4778 8.56357 11.6075 8.77352 11.8048 8.91547C12.2124 9.2089 12.7838 9.11795 13.0786 8.71249C13.2209 8.51675 13.2781 8.27776 13.24 8.03935C13.2016 7.80034 13.0719 7.59037 12.8746 7.44844C12.7132 7.33213 12.5261 7.27636 12.3408 7.27636Z" stroke="#595959" stroke-width="0.4"/>
</svg>
