<svg width="12" height="12" viewBox="0 0 12 12" fill="none" xmlns="http://www.w3.org/2000/svg">
<path d="M10.5714 0H1.42857C0.640857 0 0 0.640857 0 1.42857V10.5714C0 11.3591 0.640857 12 1.42857 12H10.5714C11.3591 12 12 11.3591 12 10.5714V1.42857C12 0.640857 11.3591 0 10.5714 0ZM9.43029 5.23514C9.36543 5.24114 9.29972 5.24514 9.23314 5.24514C8.48372 5.24514 7.82514 4.85971 7.442 4.27714C7.442 5.80543 7.442 7.54429 7.442 7.57343C7.442 8.91886 6.35114 10.0097 5.00571 10.0097C3.66029 10.0097 2.56943 8.91886 2.56943 7.57343C2.56943 6.228 3.66029 5.13714 5.00571 5.13714C5.05657 5.13714 5.10629 5.14171 5.15629 5.14486V6.34543C5.10629 6.33943 5.05714 6.33029 5.00571 6.33029C4.31886 6.33029 3.76229 6.88686 3.76229 7.57371C3.76229 8.26057 4.31886 8.81714 5.00571 8.81714C5.69257 8.81714 6.29914 8.276 6.29914 7.58914C6.29914 7.562 6.31114 1.99086 6.31114 1.99086H7.45857C7.56657 3.01686 8.39486 3.82657 9.43029 3.90086V5.23514Z" fill="#4D4C4C"/>
</svg>
