<svg width="18" height="24" viewBox="0 0 18 24" fill="none" xmlns="http://www.w3.org/2000/svg">
<path d="M14 8.92002V9.37923L14.3483 9.6785C15.9839 11.0838 17 13.1124 17 15.36C17 19.5414 13.4571 23 9 23C4.54286 23 1 19.5414 1 15.36C1 13.1124 2.0161 11.0838 3.6517 9.6785L4 9.37923V8.92002V5.76C4 5.40438 4.04143 5.05671 4.12016 4.7215C4.05003 5.03399 4.01088 5.35842 4.0061 5.6919C4.00371 5.85944 4.00148 6.91157 4.00308 7.61886L4.00665 9.19927L5.43332 8.51932C6.50502 8.00853 7.71534 7.72 9 7.72C10.2845 7.72 11.4947 8.00853 12.5664 8.51922L13.9948 9.19995L13.9966 7.61758C13.997 7.23275 13.9959 6.75405 13.9951 6.3508L13.9951 6.34862C13.9945 6.0876 13.994 5.85907 13.994 5.70621V5.69905L13.9939 5.6919C13.9891 5.35843 13.95 5.03401 13.8798 4.72153C13.9586 5.05673 14 5.40439 14 5.76V8.92002ZM9 12.44C7.38158 12.44 6 13.7089 6 15.36C6 17.0111 7.38158 18.28 9 18.28C10.6184 18.28 12 17.0111 12 15.36C12 13.7089 10.6184 12.44 9 12.44Z" stroke="black" stroke-width="2"/>
</svg>
