<svg width="16" height="20" viewBox="0 0 16 20" fill="none" xmlns="http://www.w3.org/2000/svg">
<path fill-rule="evenodd" clip-rule="evenodd" d="M5.49882 8.36663C5.52332 8.82621 5.17061 9.21864 4.71103 9.24314C4.08379 9.27658 3.587 9.31748 3.19878 9.35843C2.67743 9.41341 2.36065 9.73365 2.30799 10.1943C2.23238 10.8557 2.16667 11.8565 2.16667 13.3334C2.16667 14.8103 2.23238 15.8111 2.30799 16.4725C2.36074 16.934 2.67672 17.2533 3.19729 17.3082C4.10898 17.4045 5.61604 17.5001 8 17.5001C10.384 17.5001 11.891 17.4045 12.8027 17.3082C13.3233 17.2533 13.6393 16.934 13.692 16.4725C13.7676 15.8111 13.8333 14.8103 13.8333 13.3334C13.8333 11.8565 13.7676 10.8557 13.692 10.1943C13.6394 9.73365 13.3226 9.41341 12.8012 9.35843C12.413 9.31748 11.9162 9.27658 11.289 9.24314C10.8294 9.21864 10.4767 8.82621 10.5012 8.36663C10.5257 7.90704 10.9181 7.55434 11.3777 7.57884C12.0301 7.61362 12.5558 7.65663 12.976 7.70095C14.213 7.83141 15.1997 8.70899 15.3479 10.005C15.4323 10.7436 15.5 11.8097 15.5 13.3334C15.5 14.8571 15.4323 15.9232 15.3479 16.6618C15.1998 17.9571 14.2154 18.8351 12.9776 18.9657C11.9933 19.0696 10.4257 19.1667 8 19.1667C5.57435 19.1667 4.00672 19.0696 3.02236 18.9657C1.78459 18.8351 0.800173 17.9571 0.652107 16.6618C0.56767 15.9232 0.5 14.8571 0.5 13.3334C0.5 11.8097 0.56767 10.7436 0.652107 10.005C0.800262 8.70899 1.78697 7.83141 3.02397 7.70095C3.44422 7.65663 3.96994 7.61362 4.6223 7.57884C5.08189 7.55434 5.47432 7.90704 5.49882 8.36663Z" fill="#595959"/>
<path fill-rule="evenodd" clip-rule="evenodd" d="M5.67259 5.17275C5.34715 5.49819 4.81951 5.49819 4.49408 5.17275C4.16864 4.84732 4.16864 4.31968 4.49408 3.99424L7.41074 1.07757C7.73618 0.752137 8.26382 0.752137 8.58926 1.07757L11.5059 3.99424C11.8314 4.31968 11.8314 4.84732 11.5059 5.17275C11.1805 5.49819 10.6528 5.49819 10.3274 5.17275L8.83333 3.67867V11.6668C8.83333 12.1271 8.46024 12.5002 8 12.5002C7.53976 12.5002 7.16667 12.1271 7.16667 11.6668V3.67867L5.67259 5.17275Z" fill="#595959"/>
</svg>
