<svg width="15" height="16" viewBox="0 0 15 16" fill="none" xmlns="http://www.w3.org/2000/svg">
<path d="M8.85724 9.5H5.94295C2.96795 9.5 0.600098 11.9688 0.600098 15C0.600098 15.5625 1.0251 16 1.57153 16H13.2287C13.7447 16 14.2001 15.5625 14.2001 15C14.2001 11.9688 11.8019 9.5 8.85724 9.5ZM2.05724 14.5C2.3001 12.5312 3.93938 11 5.94295 11H8.85724C10.8305 11 12.4697 12.5312 12.7126 14.5H2.05724ZM7.4001 8C9.5251 8 11.2858 6.21875 11.2858 4C11.2858 1.8125 9.5251 0 7.4001 0C5.24474 0 3.51438 1.8125 3.51438 4C3.51438 6.21875 5.24474 8 7.4001 8ZM7.4001 1.5C8.73581 1.5 9.82867 2.625 9.82867 4C9.82867 5.40625 8.73581 6.5 7.4001 6.5C6.03403 6.5 4.97153 5.40625 4.97153 4C4.97153 2.625 6.03403 1.5 7.4001 1.5Z" fill="#595959"/>
</svg>
