<svg width="16" height="14" viewBox="0 0 16 14" fill="none" xmlns="http://www.w3.org/2000/svg">
<path d="M5.6 7.0001C7.35 7.0001 8.8 5.5751 8.8 3.8001C8.8 2.0501 7.35 0.600098 5.6 0.600098C3.825 0.600098 2.4 2.0501 2.4 3.8001C2.4 5.5751 3.825 7.0001 5.6 7.0001ZM5.6 1.8001C6.7 1.8001 7.6 2.7001 7.6 3.8001C7.6 4.9251 6.7 5.8001 5.6 5.8001C4.475 5.8001 3.6 4.9251 3.6 3.8001C3.6 2.7001 4.475 1.8001 5.6 1.8001ZM14.8 7.8001H11.6V5.8001C11.6 5.3751 11.95 5.0001 12.4 5.0001C12.825 5.0001 13.2 5.3751 13.2 5.8001V6.2001H14.4V5.9251C14.4 4.8751 13.625 3.9251 12.6 3.8251C12.525 3.8251 12.45 3.8251 12.4 3.8251C11.275 3.8001 10.4 4.7001 10.4 5.8001V7.8001H10C9.325 7.8001 8.8 8.3501 8.8 9.0001V12.2001C8.8 12.8751 9.325 13.4001 10 13.4001H14.8C15.45 13.4001 16 12.8751 16 12.2001V9.0001C16 8.3501 15.45 7.8001 14.8 7.8001ZM12.4 11.4001C11.95 11.4001 11.6 11.0501 11.6 10.6001C11.6 10.1751 11.95 9.8001 12.4 9.8001C12.825 9.8001 13.2 10.1751 13.2 10.6001C13.2 11.0501 12.825 11.4001 12.4 11.4001ZM8 12.2001C8 12.6751 8.15 13.0751 8.4 13.4001H0.8C0.35 13.4001 0 13.0501 0 12.6001C0 10.1751 1.95 8.2001 4.4 8.2001H6.8C7.25 8.2001 7.675 8.2751 8.075 8.4001C8.025 8.6001 8 8.8001 8 9.0001V9.6501C7.625 9.5001 7.2 9.4001 6.8 9.4001H4.4C2.75 9.4001 1.4 10.6251 1.225 12.2001H8Z" fill="#595959"/>
</svg>
