<svg width="22" height="22" viewBox="0 0 22 22" fill="none" xmlns="http://www.w3.org/2000/svg">
<path d="M11 1C5.48268 1 1 5.48248 1 11C1 16.5173 5.48248 21 11 21C16.5173 21 21 16.5175 21 11C21 5.48268 16.5175 1 11 1ZM11 1.90916C16.0259 1.90916 20.0906 5.9738 20.0906 10.9998C20.0906 16.0257 16.026 20.0904 11 20.0904C5.97409 20.0904 1.9094 16.0257 1.9094 10.9998C1.9094 5.97385 5.97404 1.90916 11 1.90916ZM14.1247 13.9189C13.9684 13.9443 13.8366 14.0492 13.7768 14.1958C13.3005 15.1101 12.2502 15.7725 10.9998 15.7725C9.74945 15.7725 8.69163 15.1089 8.21586 14.1958C8.13188 14.029 7.95455 13.9304 7.7684 13.9472C7.61731 13.9624 7.48365 14.052 7.41242 14.1861C7.34099 14.3203 7.34137 14.4811 7.41335 14.615C8.05857 15.853 9.43039 16.6817 10.9998 16.6817C12.5694 16.6817 13.9346 15.8518 14.5793 14.615C14.6772 14.4641 14.677 14.2695 14.5785 14.119C14.4801 13.9684 14.3022 13.8899 14.1247 13.9189Z" fill="black" stroke="black" stroke-width="0.5"/>
</svg>
