<svg width="32" height="23" viewBox="0 0 32 23" fill="none" xmlns="http://www.w3.org/2000/svg">
<path fill-rule="evenodd" clip-rule="evenodd" d="M22.2996 7.25775C22.8477 7.13963 23.4169 7.07752 24.0003 7.07752C28.4187 7.07752 32 10.6421 32 15.0388C32 19.4357 28.4185 23 24.0003 23C21.8324 23 19.866 22.1418 18.4253 20.7483C16.5051 22.1632 14.1286 23 11.5559 23C5.17407 23 0 17.8514 0 11.4996C0 5.14847 5.17378 0 11.5559 0C16.4322 0 20.6028 3.00627 22.2996 7.25775ZM20.6121 7.82477C19.155 4.27295 15.6492 1.77001 11.5561 1.77001C6.15606 1.77001 1.77825 6.12648 1.77825 11.5008C1.77825 16.8751 6.15606 21.2316 11.5561 21.2316C13.6997 21.2316 15.6823 20.5451 17.2937 19.3811C16.4757 18.1323 16.0004 16.6411 16.0004 15.0394C16.0004 11.8477 17.8876 9.09462 20.6121 7.82477ZM19.7749 19.5842C20.8843 20.6065 22.369 21.2312 24.0003 21.2312C27.437 21.2312 30.2225 18.4587 30.2225 15.0389C30.2225 11.6191 27.4369 8.84668 24.0003 8.84668C23.5996 8.84668 23.2077 8.88439 22.8279 8.95648C23.0134 9.77497 23.1115 10.6262 23.1115 11.5004C23.1115 14.6519 21.8377 17.5069 19.7749 19.5842ZM21.1353 9.54038C19.1408 10.5718 17.7781 12.6469 17.7781 15.0386C17.7781 16.1929 18.0954 17.2737 18.6482 18.1987C20.3126 16.4542 21.3337 14.0959 21.3337 11.5002C21.3337 10.8289 21.2654 10.1734 21.1353 9.54038Z" fill="white"/>
</svg>
