<svg width="16" height="15" viewBox="0 0 16 15" fill="none" xmlns="http://www.w3.org/2000/svg">
<path d="M16 4.7998C16 5.9248 15.0938 6.7998 14 6.7998H2C0.875 6.7998 0 5.9248 0 4.7998V2.7998C0 1.70605 0.875 0.799805 2 0.799805H14C15.0938 0.799805 16 1.70605 16 2.7998V4.7998ZM2 14.7998C0.875 14.7998 0 13.9248 0 12.7998V10.7998C0 9.70605 0.875 8.7998 2 8.7998H14C15.0938 8.7998 16 9.70605 16 10.7998V12.7998C16 13.9248 15.0938 14.7998 14 14.7998H2ZM14 12.7998V10.7998H2V12.7998H14Z" fill="#595959"/>
</svg>
