<svg width="16" height="12" viewBox="0 0 16 12" fill="none" xmlns="http://www.w3.org/2000/svg">
<path d="M15.6656 1.6395C15.4816 0.9945 14.9392 0.486 14.2512 0.3135C13.0032 1.49012e-07 8 0 8 0C8 0 2.9968 1.49012e-07 1.7488 0.3135C1.0608 0.486 0.5184 0.9945 0.3344 1.6395C-2.98023e-08 2.8095 0 6 0 6C0 6 -2.98023e-08 9.1905 0.3344 10.3605C0.5184 11.0055 1.0608 11.514 1.7488 11.6865C2.9968 12 8 12 8 12C8 12 13.0032 12 14.2512 11.6865C14.94 11.514 15.4816 11.0055 15.6656 10.3605C16 9.1905 16 6 16 6C16 6 16 2.8095 15.6656 1.6395ZM6.4 7.9485V4.0515C6.4 3.76275 6.7336 3.58275 7 3.72675L10.6 5.67525C10.8664 5.81925 10.8664 6.18075 10.6 6.32475L7 8.27325C6.7336 8.418 6.4 8.23725 6.4 7.9485Z" fill="#4D4C4C"/>
</svg>
